SplineFontDB: 3.0
FontName: StickNoBills-Bold
FullName: Stick No Bills
FamilyName: Stick No Bills
Weight: Bold
Copyright: Copyright (c) 2013 STICK NO BILLS, Copyright (c) 2015 mooniak\n
UComments: "2015-2-15: Created with FontForge (http://fontforge.org) The  Free Font Editor"
Version: 1.0
ItalicAngle: 0
UnderlinePosition: -102
UnderlineWidth: 51
Ascent: 819
Descent: 205
InvalidEm: 0
UFOAscent: 819
UFODescent: -205
LayerCount: 2
Layer: 0 0 "Back" 1
Layer: 1 0 "Fore" 0
PreferredKerning: 4
FSType: 0
OS2Version: 0
OS2_WeightWidthSlopeOnly: 0
OS2_UseTypoMetrics: 0
CreationTime: 1429518268
ModificationTime: 1441006348
PfmFamily: 16
TTFWeight: 400
TTFWidth: 5
LineGap: 94
VLineGap: 0
OS2TypoAscent: 819
OS2TypoAOffset: 0
OS2TypoDescent: -205
OS2TypoDOffset: 0
OS2TypoLinegap: 94
OS2WinAscent: 918
OS2WinAOffset: 0
OS2WinDescent: 205
OS2WinDOffset: 0
HheadAscent: 918
HheadAOffset: 0
HheadDescent: -205
HheadDOffset: 0
OS2Vendor: 'PfEd'
OS2UnicodeRanges: 00000002.00000000.00000000.00000000
Lookup: 258 0 0 "'kern' Horizontal Kerning lookup 0" { "'kern' Horizontal Kerning lookup 0-1" [153,15,0] } ['kern' ('DFLT' <'dflt' > 'hani' <'dflt' > 'latn' <'dflt' > ) ]
MarkAttachClasses: 1
DEI: 91125
KernClass2: 7 7 "'kern' Horizontal Kerning lookup 0-1"
 1 A
 7 T Y P F
 9 f r v w y
 1 L
 3 W V
 0 
 7 W V T Y
 12 period comma
 17 a e s o q d c g u
 1 A
 5 w v t
 15 semicolon colon
 0 {} 0 {} 0 {} 0 {} 0 {} 0 {} 0 {} 0 {} -70 {} 61 {} -23 {} 0 {} -68 {} 45 {} 0 {} 16 {} -80 {} -30 {} -100 {} -23 {} -63 {} 0 {} 0 {} -41 {} 0 {} 0 {} 0 {} 0 {} 0 {} -82 {} 0 {} 84 {} 0 {} -77 {} 62 {} 0 {} 0 {} -109 {} -55 {} -130 {} 0 {} -75 {} 0 {} 0 {} 0 {} 0 {} 0 {} 0 {} 0 {}

StartChar: uni0041
Encoding: 33 65 0
GlifName: A_
Width: 528
VWidth: 0
GlyphClass: 2
Flags: HW
HStem: 0 21G<32 174.371 354.294 496> 679 20G<206 349.32> 679 20G<206 349.32>
VStem: 161 15<549.661 582>
LayerCount: 2
Fore
SplineSet
32 0 m 257
 161 582 l 257x90
 176 582 l 257
 236 302 l 257
 170 0 l 257
 32 0 l 257
245 85 m 261
 275 223 l 257
 311 223 l 257
 206 699 l 257xd0
 345 699 l 257
 496 0 l 257
 359 0 l 257
 339 85 l 257
 245 85 l 261
EndSplineSet
EndChar

StartChar: uni00C6
Encoding: 133 198 1
GlifName: A_E_
Width: 727
VWidth: 0
GlyphClass: 2
Flags: HW
HStem: 0 141<478 701 478 701> 277 141<478 607 478 607> 560 140<320 337 320 320 478 478 478 483 483 701>
VStem: 337 141<141 148 148 148 268 277 418 560>
LayerCount: 2
Fore
SplineSet
26 0 m 257
 206 700 l 257
 701 700 l 257
 701 560 l 257
 483 560 l 257
 478 560 l 257
 478 418 l 257
 607 418 l 257
 607 277 l 257
 478 277 l 257
 478 141 l 257
 701 141 l 257
 701 0 l 257
 337 0 l 257
 337 148 l 257
 272 148 l 257
 301 268 l 257
 337 268 l 257
 337 560 l 257
 320 560 l 257
 182 0 l 257
 26 0 l 257
EndSplineSet
EndChar

StartChar: uni00C5
Encoding: 132 197 6
GlifName: A_ring
Width: 516
VWidth: 0
GlyphClass: 2
Flags: HW
HStem: 0 21<26 164 26 26 353 490 353 353> 669 64 679 20<339 339 339 339> 797 64<260 278>
VStem: 155 15<582 582> 173 64<756 774 756 791.5> 301 64<756 774>
LayerCount: 2
Fore
SplineSet
26 0 m 257
 155 582 l 257
 170 582 l 257
 230 302 l 257
 164 0 l 257
 26 0 l 257
173 765 m 256xbe
 173 818 216 861 269 861 c 256
 322 861 365 818 365 765 c 256
 365 738.676078009 355.629770284 715.629770284 339 699 c 257
 490 0 l 257
 353 0 l 257
 333 85 l 257
 239 85 l 257
 269 223 l 257
 305 223 l 257
 200 698 l 257
 183 715 173 739 173 765 c 256xbe
237 765 m 256
 237 747 251 733 269 733 c 256xde
 287 733 301 747 301 765 c 256
 301 783 287 797 269 797 c 256
 251 797 237 783 237 765 c 256
EndSplineSet
EndChar

StartChar: uni0042
Encoding: 34 66 8
GlifName: B_
Width: 496
VWidth: 0
GlyphClass: 2
Flags: HW
HStem: 0 122<42 280.5 237 280.5> 289 122<237 267 237 282> 577 123<42 237>
VStem: 42 141<0 700 0 700> 340 134<197 201 197 216>
LayerCount: 2
Fore
SplineSet
42 0 m 257
 42 700 l 257
 183 700 l 257
 183 0 l 257
 42 0 l 257
237 0 m 257
 237 122 l 257
 324 122 340 179 340 205 c 256
 340 227 327 289 237 289 c 257
 237 411 l 257
 297 411 338 446 338 497 c 256
 338 547 296 576 237 577 c 257
 237 700 l 257
 245 701 253 701 261 701 c 256
 413 701 470 574 470 514 c 258
 470 513 l 258
 469 421 436 378 401 352 c 257
 439 322 474 285 474 201 c 256
 474 199 474 198 474 197 c 256
 473 86 382 -2 265 -2 c 256
 256 -2 246 -1 237 0 c 257
EndSplineSet
EndChar

StartChar: uni0043
Encoding: 35 67 9
GlifName: C_
Width: 494
VWidth: 0
GlyphClass: 2
Flags: HW
HStem: 685 20<163.5 235 289 335>
VStem: 38 141<181 518> 336 138<129 215 129 215>
LayerCount: 2
Fore
SplineSet
38 181 m 257
 38 518 l 257
 38 578 92 705 235 705 c 257
 235 564 l 261
 189 563 179 523 179 518 c 257
 179 181 l 257
 179 176 189 136 235 136 c 257
 235 -5 l 257
 92 -5 38 121 38 181 c 257
289 -5 m 257
 289 136 l 257
 289 136 321 143 331 166 c 256
 336 178 336 189 336 203 c 258
 336 215 l 257
 474 182 l 257
 474 76 381 -5 289 -5 c 257
289 564 m 257
 289 705 l 257
 381 705 474 612 474 516 c 257
 336 480 l 257
 336 495 l 258
 336 509 336 520 331 532 c 256
 321 555 289 564 289 564 c 257
EndSplineSet
EndChar

StartChar: uni0044
Encoding: 36 68 11
GlifName: D_
Width: 472
VWidth: 0
GlyphClass: 2
Flags: HW
HStem: 0 21<42 42 42 183 237 267> 0 21<42 42 42 183 237 267> 680 20<42 183 183 183 237 308.5>
VStem: 42 141<0 700 0 700> 293 141<197 503>
LayerCount: 2
Fore
SplineSet
42 0 m 257
 42 700 l 257
 183 700 l 257
 183 0 l 257
 42 0 l 257
237 0 m 257xb8
 237 141 l 257
 243 141 292 149 293 197 c 258
 293 503 l 257
 293 508 285 558 237 559 c 257
 237 700 l 257
 380 700 434 566 434 503 c 257
 434 197 l 257
 434 50 297 0 237 0 c 257xb8
EndSplineSet
EndChar

StartChar: uni0045
Encoding: 37 69 12
GlifName: E_
Width: 444
VWidth: 0
GlyphClass: 2
Flags: HW
HStem: 0 141<183 406 183 406> 277 141<183 312 183 312> 560 140<183 406 183 183>
VStem: 42 364<0 141 560 700> 42 141<141 277 418 560>
LayerCount: 2
Fore
SplineSet
42 0 m 257
 42 700 l 257
 406 700 l 257
 406 560 l 257xf0
 183 560 l 257
 183 418 l 257
 312 418 l 257
 312 277 l 257
 183 277 l 257
 183 141 l 257xe8
 406 141 l 257xf0
 406 0 l 257
 42 0 l 257
EndSplineSet
EndChar

StartChar: uni20AC
Encoding: 307 8364 13
GlifName: E_U_R_O_
Width: 567
VWidth: 0
GlyphClass: 2
Flags: HW
HStem: 258 59<50 99 50 99 236 408> 376 60<236 408> 558 140<278 278 278 338>
VStem: 99 137<182 202 202 258 178.5 258 317 376 436 488> 381 136<182 186 171 199 514 518>
LayerCount: 2
Fore
SplineSet
50 258 m 257
 50 317 l 257
 99 317 l 257
 99 377 l 257
 50 377 l 257
 50 436 l 257
 99 436 l 257
 99 496 l 258
 99 540 106 576 134 613 c 256
 172 666 217 696 278 698 c 257
 278 558 l 257
 239 543 236 532 236 488 c 258
 236 436 l 257
 408 436 l 257
 408 376 l 257
 236 376 l 257
 236 317 l 257
 408 317 l 257
 408 258 l 257
 236 258 l 257
 236 202 l 258
 236 155 254 154 278 141 c 257
 278 2 l 257
 197 8 168 45 134 90 c 256
 113 118 101 149 99 182 c 258
 99 258 l 257
 50 258 l 257
338 2 m 257
 338 142 l 257
 366 151 381 165 381 199 c 258
 380 237 l 257
 517 186 l 257
 517 156 501 102 464 64 c 256
 426 25 387 3 338 2 c 257
338 558 m 257
 338 698 l 257
 387 697 426 675 464 636 c 256
 501 598 517 544 517 514 c 257
 380 463 l 257
 381 501 l 258
 381 535 366 549 338 558 c 257
EndSplineSet
EndChar

StartChar: uni00D0
Encoding: 143 208 18
GlifName: E_th
Width: 501
VWidth: 0
GlyphClass: 2
Flags: HW
HStem: 0 21<83 224 83 83 278 308> 292 128<26 83 26 83 224 280> 680 20<83 224 224 224 278 349.5>
VStem: 83 141<0 292 0 292 420 700> 334 141<197 503>
LayerCount: 2
Fore
SplineSet
26 292 m 257
 26 420 l 257
 83 420 l 257
 83 700 l 257
 224 700 l 257
 224 420 l 257
 280 420 l 257
 280 292 l 257
 224 292 l 257
 224 0 l 257
 83 0 l 257
 83 292 l 257
 26 292 l 257
278 0 m 257
 278 141 l 257
 284 141 333 149 334 197 c 258
 334 503 l 258
 334 508 326 558 278 559 c 257
 278 700 l 257
 421 700 475 566 475 503 c 258
 475 197 l 258
 475 50 338 0 278 0 c 257
EndSplineSet
EndChar

StartChar: uni0046
Encoding: 38 70 19
GlifName: F_
Width: 432
VWidth: 0
GlyphClass: 2
Flags: HW
HStem: 1 21<42 183 42 42> 1 21<42 183 42 42> 277 141<183 312 183 312> 560 140<183 406 183 183>
VStem: 42 141<1 277 418 560>
LayerCount: 2
Fore
SplineSet
42 1 m 257
 42 700 l 257
 406 700 l 257
 406 560 l 257
 183 560 l 257
 183 418 l 257
 312 418 l 257xb8
 312 277 l 257
 183 277 l 257
 183 1 l 257
 42 1 l 257
EndSplineSet
EndChar

StartChar: uni0047
Encoding: 39 71 20
GlifName: G_
Width: 507
VWidth: 0
GlyphClass: 2
Flags: HW
HStem: -5 141<231.5 234 231.5 234 231.5 288> 685 20<168 234 288 334.5>
VStem: 38 141<192 508 192 524 192 524> 288 185<135.5 136 136 136 223 353 135.5 353> 331 142<190 223 223 223>
LayerCount: 2
Fore
SplineSet
38 192 m 257
 38 524 l 257
 46 589 102 705 234 705 c 257
 234 564 l 257
 188 563 179 513 179 508 c 257
 179 192 l 258
 180 146 229 136 234 136 c 257
 234 -5 l 257
 174 -5 38 48 38 192 c 257
288 -5 m 257
 288 136 l 257xf0
 294 136 331 155 331 190 c 258
 331 223 l 257xe8
 288 223 l 257
 288 353 l 257
 473 353 l 257
 473 176 l 258
 473 95 370 -4 288 -5 c 257
288 564 m 257xf0
 288 705 l 257xf0
 381 705 473 612 473 516 c 257xe8
 335 465 l 257
 335 495 l 258
 335 509 335 520 330 532 c 256
 320 555 288 564 288 564 c 257xf0
EndSplineSet
EndChar

StartChar: uni0048
Encoding: 40 72 21
GlifName: H_
Width: 478
VWidth: 0
GlyphClass: 2
Flags: HW
HStem: 0 21G<42 183 295 436> 680 20G<42 183 295 436>
VStem: 42 170<283 421> 42 141<0 283 421 700> 266 170<283 421> 295 141<0 283 421 700>
LayerCount: 2
Fore
SplineSet
42 0 m 257
 42 700 l 257
 183 700 l 257
 183 421 l 257xd0
 212 421 l 257xe0
 212 283 l 257xe0
 183 283 l 257
 183 0 l 257
 42 0 l 257
266 283 m 257
 266 421 l 257xc8
 295 421 l 257
 295 700 l 257xc4
 436 700 l 257
 436 0 l 257
 295 0 l 257
 295 283 l 257xc4
 266 283 l 257
EndSplineSet
EndChar

StartChar: HKD
Encoding: 65536 22291 22
GlifName: H_K_D_
Width: 843
VWidth: 0
GlyphClass: 2
Flags: HW
HStem: 488 210<50 92 126 169 198 241 284 299> 573 41<92 101 117 126>
VStem: 50 51<573 614> 50 42<488 573 614 698> 117 52<573 614> 126 43<488 573 614 698> 198 43<488 698> 360 134<469.698 556.339> 464 71<-47 24.8107 666.034 750> 590 71<-47 22.1824 668.09 750> 652 141<146.133 253.424>
LayerCount: 2
Fore
SplineSet
50 488 m 257
 50 698 l 257
 92 698 l 257x92
 92 614 l 257x52
 101 614 l 257x62
 101 573 l 257x62
 92 573 l 257x52
 92 488 l 257
 50 488 l 257
117 573 m 257
 117 614 l 257x4a
 126 614 l 257x46
 126 698 l 257x86
 169 698 l 257
 169 488 l 257
 126 488 l 257x86
 126 573 l 257x46
 117 573 l 257
198 488 m 257
 198 698 l 257
 241 698 l 257
 241 488 l 257
 198 488 l 257
257 611 m 257
 283 698 l 257x82
 325 698 l 257
 299 611 l 257
 326 488 l 257
 284 488 l 257
 257 611 l 257
EndSplineSet
Refer: 105 36 N 1 0 0 1 322 0 2
EndChar

StartChar: uni0049
Encoding: 41 73 23
GlifName: I_
Width: 225
VWidth: 0
GlyphClass: 2
Flags: HW
HStem: 0 21<42 183 42 42> 0 21<42 183 42 42> 680 20<42 183 183 183>
VStem: 42 141<0 700 0 700>
LayerCount: 2
Fore
SplineSet
42 0 m 257
 42 700 l 257xb0
 183 700 l 257
 183 0 l 257
 42 0 l 257
EndSplineSet
EndChar

StartChar: uni004A
Encoding: 42 74 28
GlifName: J_
Width: 484
VWidth: 0
GlyphClass: 2
Flags: HW
HStem: -5 142<199.5 202 199.5 202 256 258.5 199.5 286> 680 20<312 452 452 452>
VStem: 15 141<193 242 193 242> 312 140<193 700>
LayerCount: 2
Fore
SplineSet
15 193 m 257
 15 242 l 257
 156 242 l 257
 156 193 l 258
 157 147 197 137 202 137 c 257
 202 -5 l 257
 142 -5 15 54 15 193 c 257
256 -5 m 257
 256 137 l 257
 261 137 311 147 312 193 c 258
 312 700 l 257
 452 700 l 257
 452 193 l 257
 452 49 316 -5 256 -5 c 257
EndSplineSet
EndChar

StartChar: uni004B
Encoding: 43 75 29
GlifName: K_
Width: 488
VWidth: 0
GlyphClass: 2
Flags: HW
HStem: 0 21<42 183 42 42 335 473 335 335> 0 21<42 183 42 42 335 473 335 335> 680 20<42 183 183 183 330 469 469 469>
VStem: 42 141<0 700 0 700>
LayerCount: 2
Fore
SplineSet
42 0 m 257
 42 700 l 257
 183 700 l 257
 183 0 l 257
 42 0 l 257
223 341 m 257
 330 700 l 257xb0
 469 700 l 257
 363 341 l 257
 473 0 l 257
 335 0 l 257
 223 341 l 257
EndSplineSet
EndChar

StartChar: uni004C
Encoding: 44 76 30
GlifName: L_
Width: 433
VWidth: 0
GlyphClass: 2
Flags: HW
HStem: 0 139<183 418 183 418> 680 20<42 183 183 183>
VStem: 42 141<139 700 139 700 139 700>
LayerCount: 2
Fore
SplineSet
42 0 m 257
 42 700 l 257
 183 700 l 257
 183 139 l 257
 418 139 l 257
 418 0 l 257
 42 0 l 257
EndSplineSet
EndChar

StartChar: uni0141
Encoding: 231 321 31
GlifName: L_slash
Width: 530
VWidth: 0
GlyphClass: 2
Flags: HW
HStem: 0 139<270 505 270 505> 680 20<129 270 270 270>
VStem: 129 141<139 233 233 233 492 700>
LayerCount: 2
Fore
SplineSet
26 302 m 257
 129 382 l 257
 129 700 l 257
 270 700 l 257
 270 492 l 257
 348 553 l 257
 420 460 l 257
 270 343 l 257
 270 139 l 257
 505 139 l 257
 505 0 l 257
 129 0 l 257
 129 233 l 257
 98 209 l 257
 26 302 l 257
EndSplineSet
EndChar

StartChar: uni004D
Encoding: 45 77 32
GlifName: M_
Width: 696
VWidth: 0
GlyphClass: 2
Flags: HW
HStem: 0 21<42 42 42 183 295 295 295 392 513 513 513 654> 0 21<42 42 42 183 295 295 295 392 513 513 513 654> 680 20<42 152 152 152 513 654 654 654>
VStem: 42 141<0 127 0 444> 513 141<0 700 0 700>
LayerCount: 2
Fore
SplineSet
42 0 m 257xb8
 42 444 l 257
 51 444 l 257
 183 127 l 257
 183 0 l 257
 42 0 l 257xb8
42 608 m 257
 42 700 l 257
 152 700 l 257
 343 237 l 257
 449 476 l 257
 459 476 l 257
 459 151 l 257
 392 0 l 257
 295 0 l 257
 42 608 l 257
513 0 m 257
 513 700 l 257
 654 700 l 257
 654 0 l 257
 513 0 l 257
EndSplineSet
EndChar

StartChar: uni004E
Encoding: 46 78 33
GlifName: N_
Width: 529
VWidth: 0
GlyphClass: 2
Flags: HW
HStem: 0 21<42 42 42 183 420 420 420 487> 0 21<42 42 42 183 420 420 420 487> 680 20<42 157 157 157 346 487 487 487>
VStem: 42 141<0 278 0 492> 346 141<498 700>
LayerCount: 2
Fore
SplineSet
42 0 m 257xb8
 42 492 l 257
 50 492 l 257
 183 278 l 257
 183 0 l 257
 42 0 l 257xb8
42 608 m 257
 42 700 l 257
 157 700 l 257
 487 168 l 257
 487 0 l 257
 420 0 l 257
 42 608 l 257
346 498 m 257
 346 700 l 257
 487 700 l 257
 487 284 l 257
 479 284 l 257
 346 498 l 257
EndSplineSet
EndChar

StartChar: uni004F
Encoding: 47 79 35
GlifName: O_
Width: 524
VWidth: 0
GlyphClass: 2
Flags: HW
HStem: -5 142<193.632 234 289 329.46> 564 141<194.089 235 289 329.65>
VStem: 38 141<156.794 549.004> 345 141<156.794 548.717>
LayerCount: 2
Fore
SplineSet
38 195 m 258
 38 524 l 258
 38 584 103 705 235 705 c 257
 235 564 l 257
 189 563 179 513 179 508 c 258
 179 195 l 258
 179 149 229 137 234 137 c 257
 234 -5 l 257
 174 -5 38 51 38 195 c 258
289 -5 m 257
 289 137 l 257
 294 137 344 149 345 195 c 258
 345 508 l 258
 345 513 335 563 289 564 c 257
 289 705 l 257
 420 705 486 583 486 524 c 258
 486 195 l 258
 486 51 349 -5 289 -5 c 257
EndSplineSet
EndChar

StartChar: uni0152
Encoding: 243 338 36
GlifName: O_E_
Width: 724
VWidth: 0
GlyphClass: 2
Flags: HW
HStem: -5 142 564 141
VStem: 26 141<200 503> 333 141
LayerCount: 2
Fore
SplineSet
26 200 m 258
 26 519 l 258
 26 579 91 700 223 700 c 257
 223 559 l 257
 177 558 167 508 167 503 c 258
 167 200 l 258
 167 154 217 142 222 142 c 257
 222 0 l 257
 162 0 26 56 26 200 c 258
277 0 m 257
 277 142 l 257
 334 142 l 257
 334 559 l 257
 277 559 l 257
 277 700 l 257
 698 700 l 257
 698 560 l 257
 475 560 l 257
 475 418 l 257
 604 418 l 257
 604 277 l 257
 475 277 l 257
 475 141 l 257
 698 141 l 257
 698 0 l 257
 277 0 l 257
EndSplineSet
EndChar

StartChar: uni00D8
Encoding: 151 216 41
GlifName: O_slash
Width: 662
VWidth: 0
GlyphClass: 2
Flags: HW
HStem: -5 142<301.5 304 301.5 304 359 361.5 301.5 389> 564 141<239 305 239 359>
VStem: 108 141<356 508> 415 141<195 347 347 347>
LayerCount: 2
Fore
SplineSet
0 131 m 257
 108 228 l 257
 108 524 l 258
 108 584 173 705 305 705 c 257
 305 564 l 257
 259 563 249 513 249 508 c 258
 249 356 l 257
 415 505 l 257
 415 508 l 258
 415 513 405 563 359 564 c 257
 359 705 l 257
 441 705 497 658 528 607 c 257
 584 658 l 257
 662 570 l 257
 556 474 l 257
 556 195 l 258
 556 51 419 -5 359 -5 c 257
 359 137 l 257
 364 137 414 149 415 195 c 258
 415 347 l 257
 249 197 l 257
 249 195 l 258
 249 149 299 137 304 137 c 257
 304 -5 l 257
 261 -5 178 24 135 94 c 257
 78 43 l 257
 0 131 l 257
EndSplineSet
EndChar

StartChar: uni0050
Encoding: 48 80 43
GlifName: P_
Width: 479
VWidth: 0
GlyphClass: 2
Flags: HW
HStem: 0 21<42 183 42 42> 0 21<42 183 42 42> 318 139<237 270 270 273.5 237 315.5> 561 139<237 270 42 237>
VStem: 42 141<0 700 0 700> 321 143<483 533.5>
LayerCount: 2
Fore
SplineSet
42 0 m 257xbc
 42 700 l 257
 183 700 l 257
 183 0 l 257
 42 0 l 257xbc
237 318 m 257
 237 457 l 257x3c
 270 457 l 258
 277 457 321 458 321 508 c 256
 321 559 279 561 270 561 c 258
 237 561 l 257
 237 700 l 257
 418 700 464 626 464 512 c 256
 464 369 394 318 237 318 c 257
EndSplineSet
EndChar

StartChar: uni0025
Encoding: 5 37 44
GlifName: P_ercent_sign
Width: 629
VWidth: 0
GlyphClass: 2
Flags: W
HStem: 9 216<465 525> 467 216<104 164>
VStem: 26 216<545 605> 387 216<87 147>
LayerCount: 2
Fore
SplineSet
26 575 m 256
 26 635 74 683 134 683 c 256
 194 683 242 635 242 575 c 256
 242 515 194 467 134 467 c 256
 74 467 26 515 26 575 c 256
160 -23 m 257
 335 716 l 257
 461 716 l 257
 287 -23 l 257
 160 -23 l 257
387 117 m 256
 387 177 435 225 495 225 c 256
 555 225 603 177 603 117 c 256
 603 57 555 9 495 9 c 256
 435 9 387 57 387 117 c 256
EndSplineSet
Validated: 1
EndChar

StartChar: uni0051
Encoding: 49 81 45
GlifName: Q_
Width: 526
VWidth: 0
GlyphClass: 2
Flags: HW
HStem: 564 141<169 235 169 289>
VStem: 38 141<195 508> 345 141<195 508 508 510.5>
LayerCount: 2
Fore
SplineSet
38 195 m 258
 38 524 l 258
 38 584 103 705 235 705 c 257
 235 564 l 257
 189 563 179 513 179 508 c 258
 179 195 l 258
 179 149 229 137 234 137 c 257
 234 -5 l 257
 174 -5 38 51 38 195 c 258
289 -5 m 257
 289 137 l 257
 294 137 344 149 345 195 c 258
 345 508 l 258
 345 513 335 563 289 564 c 257
 289 705 l 257
 420 705 486 583 486 524 c 258
 486 195 l 258
 486 127 456 79 417 47 c 257
 472 -32 l 257
 360 -107 l 257
 289 -5 l 257
EndSplineSet
EndChar

StartChar: uni0052
Encoding: 50 82 46
GlifName: R_
Width: 505
VWidth: 0
GlyphClass: 2
Flags: HW
HStem: 0 21<42 183 42 42 353 479 353 353> 0 21<42 183 42 42 353 479 353 353> 286 125<237 250> 567 133<237 250 42 237>
VStem: 42 141<0 700 0 700> 336 127<467.5 512>
LayerCount: 2
Fore
SplineSet
42 0 m 257
 42 700 l 257
 183 700 l 257
 183 0 l 257
 42 0 l 257
237 286 m 257
 237 411 l 257xbc
 250 411 l 258
 310 411 336 447 336 488 c 256
 336 536 299 567 250 567 c 258
 237 567 l 257
 237 700 l 257
 387 700 463 616 463 496 c 256
 463 428 442 381 396 352 c 257
 432 325 458 266 462 217 c 258
 479 0 l 257
 353 0 l 257
 338 178 l 258
 331 257 308 285 237 286 c 257
EndSplineSet
EndChar

StartChar: uni0053
Encoding: 51 83 47
GlifName: S_
Width: 481
VWidth: 0
GlyphClass: 2
Flags: HW
HStem: 680 20<203 203 258 311>
VStem: 28 134<479.5 525 479.5 577.5> 320 141<176.5 240.5>
LayerCount: 2
Fore
SplineSet
20 158 m 257
 147 203 l 257
 149 147 203 127 203 127 c 257
 203 -3 l 257
 94 -3 21 103 20 158 c 257
28 508 m 256
 28 647 152 699 203 700 c 257
 203 568 l 257
 182 562 162 537 162 513 c 256
 162 446 266 434 333 394 c 256
 394 358 461 311 461 209 c 256
 461 96 366 -3 258 -3 c 257
 258 127 l 257
 282 130 320 150 320 203 c 256
 320 278 211 294 151 323 c 256
 80 357 28 403 28 508 c 256
258 568 m 257
 258 700 l 257
 364 700 427 589 433 553 c 257
 303 510 l 257
 298 557 258 568 258 568 c 257
EndSplineSet
EndChar

StartChar: uni0054
Encoding: 52 84 49
GlifName: T_
Width: 463
VWidth: 0
GlyphClass: 2
Flags: HW
HStem: 0 21<161 302 161 161> 0 21<161 302 161 161> 562 138<15 161 15 448 302 448 302 302>
VStem: 161 141<0 562 0 562>
LayerCount: 2
Fore
SplineSet
15 562 m 257
 15 700 l 257
 448 700 l 257xb0
 448 562 l 257
 302 562 l 257
 302 0 l 257
 161 0 l 257
 161 562 l 257
 15 562 l 257
EndSplineSet
EndChar

StartChar: uni00DE
Encoding: 157 222 50
GlifName: T_horn
Width: 474
VWidth: 0
GlyphClass: 2
Flags: HW
HStem: 0 21<26 167 26 26> 0 21<26 167 26 26> 208 139<221 254 254 257.5 221 299.5> 451 139<221 254 221 311.5> 680 20<26 167 167 167>
VStem: 26 141<0 700 0 700> 305 143<373 423.5>
LayerCount: 2
Fore
SplineSet
26 0 m 257xbe
 26 700 l 257
 167 700 l 257
 167 0 l 257
 26 0 l 257xbe
221 208 m 257
 221 347 l 257x3e
 254 347 l 258
 261 347 305 348 305 398 c 256
 305 449 263 451 254 451 c 258
 221 451 l 257
 221 590 l 257
 402 590 448 516 448 402 c 256
 448 259 378 208 221 208 c 257
EndSplineSet
EndChar

StartChar: uni2122
Encoding: 311 8482 51
GlifName: T_radeM_arkS_ign
Width: 403
VWidth: 0
GlyphClass: 2
Flags: HW
HStem: 653 47<26 72 26 165 120 165 120 120>
VStem: 72 48<484 653 484 653> 188 48<484 522 484 628> 330 47<484 700 484 700>
LayerCount: 2
Fore
SplineSet
26 653 m 257
 26 700 l 257
 165 700 l 257
 165 653 l 257
 120 653 l 257
 120 484 l 257
 72 484 l 257
 72 653 l 257
 26 653 l 257
188 484 m 257
 188 628 l 257
 191 628 l 257
 236 522 l 257
 236 484 l 257
 188 484 l 257
188 669 m 257
 188 700 l 257
 225 700 l 257
 281 564 l 257
 313 636 l 257
 317 636 l 257
 317 529 l 257
 298 484 l 257
 265 484 l 257
 188 669 l 257
330 484 m 257
 330 700 l 257
 377 700 l 257
 377 484 l 257
 330 484 l 257
EndSplineSet
EndChar

StartChar: uni0055
Encoding: 53 85 52
GlifName: U_
Width: 512
VWidth: 0
GlyphClass: 2
Flags: HW
HStem: -5 142<226.5 229 226.5 229 283 285.5 226.5 313.5> 680 20<32 173 173 173 339 479 479 479>
VStem: 32 141<193 700 193 700> 339 140<193 700>
LayerCount: 2
Fore
SplineSet
32 193 m 258
 32 700 l 257
 173 700 l 257
 173 193 l 257
 174 147 224 137 229 137 c 257
 229 -5 l 257
 169 -5 32 49 32 193 c 258
283 -5 m 257
 283 137 l 257
 288 137 338 147 339 193 c 257
 339 700 l 257
 479 700 l 257
 479 193 l 258
 479 48 344 -5 283 -5 c 257
EndSplineSet
EndChar

StartChar: uni0056
Encoding: 54 86 57
GlifName: V_
Width: 472
VWidth: 0
GlyphClass: 2
Flags: HW
HStem: 0 21<211 258 211 211> 0 21<211 258 211 211> 680 20<8 152 152 152 320 464 464 464>
LayerCount: 2
Fore
SplineSet
8 700 m 257xa0
 152 700 l 257
 311 158 l 257
 258 0 l 257
 211 0 l 257
 8 700 l 257xa0
265 514 m 257
 320 700 l 257
 464 700 l 257
 424 569 383 430 341 290 c 257
 331 290 l 257
 265 514 l 257
EndSplineSet
EndChar

StartChar: uni0057
Encoding: 55 87 58
GlifName: W_
Width: 689
VWidth: 0
GlyphClass: 2
Flags: HW
HStem: 0 21<211 258 211 211 424 424 424 471> 0 21<211 258 211 211 424 424 424 471> 680 20<8 152 152 152 221 365 365 365 537 681 681 681>
LayerCount: 2
Fore
SplineSet
8 700 m 257xa0
 152 700 l 257
 310 158 l 257
 258 0 l 257
 211 0 l 257
 8 700 l 257xa0
221 700 m 257
 365 700 l 257
 523 158 l 257
 471 0 l 257
 424 0 l 257
 221 700 l 257
482 514 m 257
 537 700 l 257
 681 700 l 257
 558 290 l 257
 548 290 l 257
 482 514 l 257
EndSplineSet
EndChar

StartChar: uni0058
Encoding: 56 88 59
GlifName: X_
Width: 442
VWidth: 0
GlyphClass: 2
Flags: HW
HStem: 0 21<15 160 15 15 282 427 282 282> 0 21<15 160 15 15 282 427 282 282> 680 20<27 164 164 164 278 415 415 415>
LayerCount: 2
Fore
SplineSet
15 0 m 257
 151 361 l 257
 27 700 l 257
 164 700 l 257
 221 548 l 257
 278 700 l 257
 415 700 l 257xa0
 291 361 l 257
 427 0 l 257
 282 0 l 257
 221 167 l 257
 160 0 l 257
 15 0 l 257
EndSplineSet
EndChar

StartChar: uni0059
Encoding: 57 89 60
GlifName: Y_
Width: 451
VWidth: 0
GlyphClass: 2
Flags: HW
HStem: 0 21<143 289 143 143> 0 21<143 289 143 143> 680 20<12 159 159 159 294 439 439 439>
VStem: 143 146<0 252 252 252>
LayerCount: 2
Fore
SplineSet
12 700 m 257xb0
 159 700 l 257
 289 253 l 257
 289 0 l 257
 143 0 l 257
 143 252 l 257
 12 700 l 257xb0
255 565 m 257
 294 700 l 257
 439 700 l 257
 330 331 l 257
 321 331 l 257
 255 565 l 257
EndSplineSet
EndChar

StartChar: uni005A
Encoding: 58 90 63
GlifName: Z_
Width: 426
VWidth: 0
GlyphClass: 2
Flags: HW
HStem: 0 144<186 396 186 396> 560 140<30 240 30 396>
VStem: 30 366<0 141 141 141 563 700>
LayerCount: 2
Fore
SplineSet
30 0 m 257
 30 141 l 257
 240 560 l 257
 30 560 l 257
 30 700 l 257
 396 700 l 257
 396 563 l 257
 186 144 l 257
 396 144 l 257
 396 0 l 257
 30 0 l 257
EndSplineSet
EndChar

StartChar: uni0061
Encoding: 65 97 65
GlifName: a
Width: 472
VWidth: 0
GlyphClass: 2
Flags: HW
HStem: 0.889648 123.2<138.746 194.001 247.9 284.696 419.998 447.001> 550.69 20G<154.401 195.101 246.801 306.751>
VStem: 24.6004 111.101<126.995 200.932> 290.801 127.6<129.016 249.49 358.671 443.638>
LayerCount: 2
Fore
SplineSet
24.599609375 132.889648438 m 258
 24.599609375 183.490234375 l 258
 24.599609375 219.790039062 32.2998046875 256.08984375 78.5 282.490234375 c 256
 125.799804688 309.990234375 290.799804688 341.889648438 290.799804688 385.889648438 c 256
 290.799804688 390.290039062 290.799804688 394.690429688 290.799804688 399.08984375 c 256
 290.799804688 425.490234375 288.599609375 444.190429688 250.099609375 447.490234375 c 256
 246.799804688 448.58984375 l 257
 246.799804688 570.690429688 l 257
 250.099609375 570.690429688 l 258
 363.399414062 570.690429688 418.399414062 466.190429688 418.399414062 417.790039062 c 258
 418.399414062 157.08984375 l 258
 418.399414062 151.58984375 420.599609375 125.190429688 443.700195312 125.190429688 c 258
 447 125.190429688 l 257
 447 0.8896484375 l 257
 443.700195312 0.8896484375 l 258
 403 0.8896484375 371.099609375 14.08984375 349.099609375 32.7900390625 c 257
 323.799804688 12.990234375 290.799804688 0.8896484375 251.200195312 0.8896484375 c 258
 247.899414062 0.8896484375 l 257
 247.899414062 124.08984375 l 257
 251.200195312 124.08984375 l 258
 284.200195312 125.190429688 290.799804688 160.389648438 290.799804688 163.690429688 c 258
 290.799804688 249.490234375 l 257
 249 225.290039062 164.299804688 208.790039062 148.899414062 201.08984375 c 256
 142.299804688 197.790039062 135.700195312 190.08984375 135.700195312 177.990234375 c 258
 135.700195312 163.690429688 l 258
 135.700195312 141.690429688 146.700195312 124.08984375 175.299804688 124.08984375 c 258
 194 124.08984375 l 257
 194 0.8896484375 l 257
 87.2998046875 0.8896484375 24.599609375 70.1904296875 24.599609375 132.889648438 c 258
32.2998046875 427.690429688 m 257
 32.2998046875 429.889648438 l 258
 32.2998046875 507.990234375 117 570.690429688 191.799804688 570.690429688 c 258
 195.099609375 570.690429688 l 257
 195.099609375 447.490234375 l 257
 191.799804688 447.490234375 l 258
 166.5 445.290039062 147.799804688 428.790039062 147.799804688 388.08984375 c 258
 147.799804688 383.690429688 l 257
 32.2998046875 427.690429688 l 257
EndSplineSet
EndChar

StartChar: uni00B4
Encoding: 115 180 68
GlifName: acute
Width: 395
VWidth: 0
GlyphClass: 2
Flags: HW
HStem: 605 152<152 206 115 279>
VStem: 115 164<605 757>
LayerCount: 2
Fore
SplineSet
115 605 m 257
 152 757 l 257
 279 757 l 257
 206 605 l 257
 115 605 l 257
EndSplineSet
EndChar

StartChar: uni00E6
Encoding: 165 230 70
GlifName: ae
Width: 666
VWidth: 0
GlyphClass: 2
Flags: HW
HStem: 1 112<163 180 163 180 229 232 163 229> 208 116<384 525 384 639 384 525> 400 116<424 426 426 429>
VStem: 26 101<139 149 149 162 139 180 139 196.5> 268 116<149 208 132 227 132 227 351 363 363 373> 525 114<324 369 369 378 208 382.5>
LayerCount: 2
Fore
SplineSet
26 110 m 258
 26 180 l 258
 26 213 33 233 75 257 c 256
 118 282 268 311 268 351 c 258
 268 363 l 258
 268 387 266 407 231 407 c 258
 178 407 l 258
 155 407 138 390 138 353 c 258
 138 349 l 257
 33 389 l 257
 33 391 l 258
 33 462 110 519 178 519 c 258
 233 519 l 258
 273 519 305 504 329 483 c 257
 353 502 385 516 424 516 c 258
 429 516 l 257
 429 400 l 257
 426 400 l 258
 400 400 387 385 384 373 c 258
 384 324 l 257
 525 324 l 257
 525 369 l 258
 525 396 502 402 482 402 c 258
 478 402 l 257
 478 516 l 257
 484 516 l 258
 554 516 639 450 639 378 c 258
 639 208 l 257
 384 208 l 257
 384 143 l 258
 384 121 400 109 425 108 c 258
 484 108 l 258
 517 108 536 134 541 157 c 257
 640 120 l 257
 624 55 555 0 484 0 c 258
 425 0 l 258
 380 0 345 9 321 30 c 257
 298 12 268 1 232 1 c 258
 229 1 l 257
 229 113 l 257
 232 113 l 258
 262 114 268 146 268 149 c 258
 268 227 l 257
 230 205 153 190 139 183 c 256
 133 180 127 173 127 162 c 258
 127 149 l 258
 127 129 137 113 163 113 c 258
 180 113 l 257
 180 1 l 257
 83 1 26 53 26 110 c 258
EndSplineSet
EndChar

StartChar: uni0026
Encoding: 6 38 72
GlifName: ampersand
Width: 666
VWidth: 0
GlyphClass: 2
Flags: HW
HStem: 682 20<257 257>
VStem: 26 157<182 227.5 182 260> 94 137<518.5 552.5 518.5 574.5> 344 133<518.5 545>
LayerCount: 2
Fore
SplineSet
26 214 m 256xd0
 26 306 81 370 151 404 c 257
 124 424 94 486 94 528 c 256
 94 621 153 681 257 702 c 257
 257 578 l 257xb0
 257 578 231 569 231 536 c 256xb0
 231 501 251 495 257 489 c 257
 257 269 l 257
 233 297 l 257
 208 275 183 251 183 204 c 256
 183 160 210 135 257 135 c 257
 257 3 l 257
 107 3 26 93 26 214 c 256xd0
317 16 m 257
 317 168 l 257
 324 173 325 174 332 180 c 257
 317 198 l 257
 317 486 l 257
 328 495 344 504 344 533 c 256
 344 557 340 570 317 582 c 257
 317 700 l 257
 424 681 477 618 477 520 c 256
 477 445 417 383 363 361 c 257
 431 280 l 257
 443 299 451 320 455 345 c 257
 594 345 l 257
 584 274 559 227 520 180 c 257
 661 16 l 257
 464 16 l 257
 417 72 l 257
 393 50 352 26 317 16 c 257
EndSplineSet
EndChar

StartChar: uni005E
Encoding: 62 94 74
GlifName: asciicircum
Width: 506
VWidth: 0
GlyphClass: 2
Flags: HW
HStem: 460 296<60 297 60 297 209 323 209 446>
LayerCount: 2
Fore
SplineSet
60 460 m 257
 209 756 l 257
 297 756 l 257
 446 460 l 257
 323 460 l 257
 252 603 l 257
 182 460 l 257
 60 460 l 257
EndSplineSet
EndChar

StartChar: uni007E
Encoding: 94 126 75
GlifName: asciitilde
Width: 628
VWidth: 0
GlyphClass: 2
Flags: HW
HStem: 235 132<373 429.5> 308 132<177.5 228>
LayerCount: 2
Fore
SplineSet
80 272 m 257
 80 405 l 257
 125 431 162 440 193 440 c 256x40
 280 440 329 367 417 367 c 256
 452 367 494 379 548 412 c 257
 548 281 l 257x80
 492 247 448 235 411 235 c 256x80
 319 235 269 308 187 308 c 256
 157 308 122 299 80 272 c 257
EndSplineSet
EndChar

StartChar: uni002A
Encoding: 10 42 76
GlifName: asterisk
Width: 324
VWidth: 0
GlyphClass: 2
Flags: HW
HStem: 478 307<125 196 125 196> 517 21<57 57>
VStem: 125 71<478 564 564 564 704 785>
LayerCount: 2
Fore
SplineSet
15 691 m 257
 57 748 l 257
 125 704 l 257
 125 785 l 257
 196 785 l 257
 196 702 l 257
 267 748 l 257
 309 691 l 257
 221 632 l 257
 308 572 l 257
 267 515 l 257
 196 565 l 257
 196 478 l 257xa0
 125 478 l 257xa0
 125 564 l 257
 57 517 l 257x60
 16 574 l 257
 103 633 l 257
 15 691 l 257
EndSplineSet
EndChar

StartChar: uni0040
Encoding: 32 64 77
GlifName: at
Width: 803
VWidth: 0
GlyphClass: 2
Flags: HW
HStem: -87 109<337 457.5 337 480.5> 116 403<368 375.5 368 593> 116 124<556 580.5 556 593> 602 113<367.5 500>
VStem: 16 120<217 396.5 217 421> 205 340<257.5 273 257.5 366.5> 666 120<346 471>
LayerCount: 2
Fore
SplineSet
16 309 m 256
 16 533 191 715 448 715 c 256
 610 715 786 612 786 412 c 256
 786 201 654 116 532 116 c 256xde
 494 116 463 137 453 161 c 257
 439 139 407 116 344 116 c 256xbe
 268 116 205 193 205 289 c 256
 205 444 327 519 409 519 c 256xde
 473 519 495 493 510 477 c 257
 518 504 l 257
 602 504 l 257
 552 308 l 258
 549 297 545 280 545 266 c 256
 545 249 549 240 563 240 c 256
 598 240 666 280 666 412 c 256
 666 530 549 602 451 602 c 256
 284 602 136 481 136 312 c 256
 136 122 260 22 414 22 c 256
 501 22 587 47 667 103 c 257xbe
 717 12 l 257
 658 -45 538 -87 423 -87 c 256
 195 -87 16 47 16 309 c 256
EndSplineSet
EndChar

StartChar: uni0062
Encoding: 66 98 79
GlifName: b
Width: 466
VWidth: -8
GlyphClass: 2
Flags: HW
HStem: -9.16016 129.8<232.5 303.852> 428.64 129.801<232.5 303.53>
VStem: 42.1988 137.5<-9.16016 759.74> 306.199 129.801<125.38 423.511>
LayerCount: 2
Fore
SplineSet
42.19921875 -9.16015625 m 257
 42.19921875 759.740234375 l 257
 179.69921875 759.740234375 l 257
 179.69921875 -9.16015625 l 257
 42.19921875 -9.16015625 l 257
232.5 -9.16015625 m 257
 232.5 120.639648438 l 257
 268.799804688 120.639648438 l 258
 299.599609375 120.639648438 306.19921875 147.040039062 306.19921875 148.139648438 c 257
 306.19921875 401.139648438 l 257
 306.19921875 403.33984375 299.599609375 427.540039062 269.899414062 428.639648438 c 258
 232.5 428.639648438 l 257
 232.5 558.440429688 l 257
 268.799804688 558.440429688 l 258
 381 558.440429688 434.899414062 455.040039062 436 405.540039062 c 257
 436 145.940429688 l 258
 436 97.5400390625 382.099609375 -9.16015625 268.799804688 -9.16015625 c 258
 232.5 -9.16015625 l 257
EndSplineSet
EndChar

StartChar: uni005C
Encoding: 60 92 80
GlifName: backslash
Width: 385
VWidth: 0
GlyphClass: 2
Flags: HW
VStem: 42 301
LayerCount: 2
Fore
SplineSet
42 716 m 257
 168 716 l 257
 343 -23 l 257
 216 -23 l 257
 42 716 l 257
EndSplineSet
EndChar

StartChar: uni007C
Encoding: 92 124 81
GlifName: bar
Width: 205
VWidth: 0
GlyphClass: 2
Flags: HW
VStem: 50 105<-134 754 -134 754>
LayerCount: 2
Fore
SplineSet
50 -134 m 257
 50 754 l 257
 155 754 l 257
 155 -134 l 257
 50 -134 l 257
EndSplineSet
EndChar

StartChar: uni007B
Encoding: 91 123 82
GlifName: braceleft
Width: 292
VWidth: 0
GlyphClass: 2
Flags: HW
HStem: -38 99<245 257 254 272> 635 100<238 272>
VStem: 77 127<192 207 207 290 290 304 146.5 306 408 469>
LayerCount: 2
Fore
SplineSet
15 348 m 257
 51 363 76 370 77 408 c 258
 77 504 l 258
 77 715 163 735 272 735 c 257
 272 635 l 257
 204 635 205 591 204 469 c 257
 204 383 l 258
 204 366 184 354 160 348 c 257
 185 340 204 325 204 304 c 258
 204 207 l 258
 204 86 218 61 272 61 c 257
 272 -38 l 257
 266 -38 260 -38 254 -38 c 256
 165 -38 77 -31 77 192 c 258
 77 290 l 258
 77 322 51 329 15 348 c 257
EndSplineSet
EndChar

StartChar: uni007D
Encoding: 93 125 83
GlifName: braceright
Width: 292
VWidth: 0
GlyphClass: 2
Flags: HW
HStem: -38 99<20 38 20 23> 635 100<20 54>
VStem: 88 127<208 290 80.5 304 80.5 314.5 408 469 469 469>
LayerCount: 2
Fore
SplineSet
20 -38 m 257
 20 61 l 257
 74 61 88 87 88 208 c 258
 88 304 l 258
 88 325 107 340 132 348 c 257
 108 354 88 366 88 383 c 256
 88 384 88 384 88 384 c 256
 88 469 l 258
 87 591 88 635 20 635 c 257
 20 735 l 257
 129 735 215 715 215 504 c 258
 215 408 l 258
 216 370 241 363 277 348 c 257
 241 329 215 322 215 290 c 258
 215 192 l 258
 215 -31 127 -38 38 -38 c 256
 32 -38 26 -38 20 -38 c 257
EndSplineSet
EndChar

StartChar: uni005B
Encoding: 59 91 84
GlifName: bracketleft
Width: 258
VWidth: 0
GlyphClass: 2
Flags: HW
HStem: -36 110<180 244 180 244> 629 110<183 244 183 183>
VStem: 50 194<-36 74 629 739> 50 130<74 74 74 739>
LayerCount: 2
Fore
SplineSet
50 -36 m 257
 50 739 l 257
 244 739 l 257xe0
 244 629 l 257xe0
 183 629 l 257
 180 74 l 257xd0
 244 74 l 257
 244 -36 l 257
 50 -36 l 257
EndSplineSet
Colour: ff0000
EndChar

StartChar: uni005D
Encoding: 61 93 85
GlifName: bracketright
Width: 258
VWidth: 0
GlyphClass: 2
Flags: HW
HStem: -36 110<14 78 14 208 14 78> 629 110<14 75 14 208>
VStem: 14 194<-36 74 74 74 629 739 -36 739> 78 130<74 74>
LayerCount: 2
Fore
SplineSet
14 -36 m 257
 14 74 l 257xe0
 78 74 l 257xd0
 75 629 l 257
 14 629 l 257
 14 739 l 257xe0
 208 739 l 257
 208 -36 l 257
 14 -36 l 257
EndSplineSet
Colour: ff0000
EndChar

StartChar: uni02D8
Encoding: 284 728 86
GlifName: breve
Width: 244
VWidth: 0
GlyphClass: 2
Flags: HW
HStem: 430 64<113 131 113 148.5>
VStem: 26 64<517 526 517 526> 154 64<517 526>
LayerCount: 2
Fore
SplineSet
26 526 m 257
 90 526 l 257
 90 508 104 494 122 494 c 256
 140 494 154 508 154 526 c 257
 218 526 l 257
 218 473 175 430 122 430 c 256
 69 430 26 473 26 526 c 257
EndSplineSet
EndChar

StartChar: uni00A6
Encoding: 101 166 87
GlifName: brokenbar
Width: 214
VWidth: 0
GlyphClass: 2
Flags: HW
VStem: 42 122<-134 221 -134 221 399 754>
LayerCount: 2
Fore
SplineSet
42 -134 m 257
 42 221 l 257
 164 221 l 257
 164 -134 l 257
 42 -134 l 257
42 399 m 257
 42 754 l 257
 164 754 l 257
 164 399 l 257
 42 399 l 257
EndSplineSet
EndChar

StartChar: uni2022
Encoding: 301 8226 88
GlifName: bullet
Width: 352
VWidth: 0
GlyphClass: 2
Flags: W
LayerCount: 2
Fore
SplineSet
26 344 m 256
 26 428 92 496 176 496 c 256
 260 496 326 428 326 344 c 256
 326 260 260 194 176 194 c 256
 92 194 26 260 26 344 c 256
EndSplineSet
Validated: 1
EndChar

StartChar: uni0063
Encoding: 67 99 89
GlifName: c
Width: 456
VWidth: 0
GlyphClass: 2
Flags: HW
HStem: -1.05957 128.699<174.128 223.699 272.1 309.228> 547.64 20G<150.55 214.899 261.1 307.849>
VStem: 37.8003 130.899<131.721 435.206>
LayerCount: 2
Fore
SplineSet
37.80078125 155.139648438 m 258
 37.80078125 414.740234375 l 257
 38.900390625 463.139648438 92.80078125 567.639648438 208.30078125 567.639648438 c 258
 214.900390625 567.639648438 l 257
 214.900390625 440.040039062 l 257
 178.810546875 440.040039062 168.700195312 418.634765625 168.700195312 412.540039062 c 258
 168.700195312 155.139648438 l 258
 168.700195312 152.940429688 166.200195312 126.540039062 210.200195312 126.540039062 c 256
 215.700195312 125.440429688 l 257
 215.700195312 0.0400390625 l 257
 210.200195312 0.0400390625 l 258
 83.7001953125 0.0400390625 37.80078125 106.740234375 37.80078125 155.139648438 c 258
261.100585938 438.940429688 m 257
 261.100585938 567.639648438 l 257
 267.700195312 567.639648438 l 258
 348 567.639648438 423.900390625 492.83984375 423.900390625 413.639648438 c 258
 423.900390625 409.240234375 l 257
 301.80078125 363.040039062 l 257
 301.80078125 396.040039062 l 258
 301.80078125 407.040039062 301.80078125 412.540039062 297.400390625 421.33984375 c 257
 291.900390625 436.740234375 267.700195312 438.940429688 267.700195312 438.940429688 c 258
 266.600585938 438.940429688 265.5 438.940429688 264.400390625 438.940429688 c 258
 261.100585938 438.940429688 l 257
261.100585938 -1.0595703125 m 261
 261.100585938 127.639648438 l 261
 267.700195312 127.639648438 l 261
 269.900390625 127.639648438 304 130.940429688 309.5 145.240234375 c 257
 313.900390625 154.040039062 313.900390625 160.639648438 313.900390625 171.639648438 c 258
 313.900390625 204.639648438 l 257
 436 158.440429688 l 257
 436 154.040039062 l 258
 436 74.83984375 349.100585938 -1.0595703125 268.80078125 -1.0595703125 c 262
 261.100585938 -1.0595703125 l 261
EndSplineSet
EndChar

StartChar: uni02C7
Encoding: 282 711 90
GlifName: caron
Width: 270
VWidth: 0
GlyphClass: 2
Flags: W
HStem: 514 152<101 107 162 167 101 101>
VStem: 26 218<666 666>
LayerCount: 2
Fore
SplineSet
26 666 m 257
 107 666 l 257
 134 609 l 257
 162 666 l 257
 244 666 l 257
 167 514 l 257
 101 514 l 257
 26 666 l 257
EndSplineSet
Validated: 1
EndChar

StartChar: uni00B8
Encoding: 119 184 92
GlifName: cedilla
Width: 426
VWidth: 0
GlyphClass: 2
Flags: HW
HStem: -36 91<123 141 123 186.5>
VStem: 199 92<95.5 123>
LayerCount: 2
Fore
SplineSet
123 -36 m 257
 123 55 l 257
 159 55 199 68 199 123 c 257
 291 123 l 257
 291 47 250 -36 123 -36 c 257
EndSplineSet
EndChar

StartChar: uni00A2
Encoding: 97 162 93
GlifName: cent
Width: 456
VWidth: 0
GlyphClass: 2
Flags: HW
VStem: 38.0004 141<181 518> 164 71<-48 -5 -5 7 7 7 693 705 705 749> 289 71<-48 -5 -5 11 -48 86 687 705 705 749> 336 138<143 215 143 215>
LayerCount: 2
Fore
SplineSet
261 31 m 1
 312 31 l 1
 312 -94 l 1
 261 -94 l 1
 261 31 l 1
165 31 m 1
 215 31 l 1
 215 -94 l 1
 165 -94 l 1
 165 31 l 1
261 662 m 1
 312 662 l 1
 312 537 l 1
 261 537 l 1
 261 662 l 1
165 662 m 1
 215 662 l 1
 215 537 l 1
 165 537 l 1
 165 662 l 1
37.80078125 155.139648438 m 258
 37.80078125 414.740234375 l 257
 38.900390625 463.139648438 92.80078125 567.639648438 208.30078125 567.639648438 c 258
 214.900390625 567.639648438 l 257
 214.900390625 440.040039062 l 257
 178.810546875 440.040039062 168.700195312 418.634765625 168.700195312 412.540039062 c 258
 168.700195312 155.139648438 l 258
 168.700195312 152.940429688 165.200195312 126.540039062 209.200195312 126.540039062 c 256
 214.700195312 125.440429688 l 257
 214.700195312 0.0400390625 l 257
 209.200195312 0.0400390625 l 258
 82.7001953125 0.0400390625 37.80078125 106.740234375 37.80078125 155.139648438 c 258
261.100585938 438.940429688 m 257
 261.100585938 567.639648438 l 257
 267.700195312 567.639648438 l 258
 348 567.639648438 423.900390625 492.83984375 423.900390625 413.639648438 c 258
 423.900390625 409.240234375 l 257
 301.80078125 363.040039062 l 257
 301.80078125 396.040039062 l 258
 301.80078125 407.040039062 301.80078125 412.540039062 297.400390625 421.33984375 c 257
 291.900390625 436.740234375 267.700195312 438.940429688 267.700195312 438.940429688 c 258
 266.600585938 438.940429688 265.5 438.940429688 264.400390625 438.940429688 c 258
 261.100585938 438.940429688 l 257
261.100585938 -1.0595703125 m 257
 261.100585938 127.639648438 l 257
 267.700195312 127.639648438 l 257
 269.900390625 127.639648438 304 130.940429688 309.5 145.240234375 c 257
 313.900390625 154.040039062 313.900390625 160.639648438 313.900390625 171.639648438 c 258
 313.900390625 204.639648438 l 257
 436 158.440429688 l 257
 436 154.040039062 l 258
 436 74.83984375 349.100585938 -1.0595703125 268.80078125 -1.0595703125 c 258
 261.100585938 -1.0595703125 l 257
EndSplineSet
EndChar

StartChar: uni02C6
Encoding: 281 710 94
GlifName: circumflex
Width: 270
VWidth: 0
GlyphClass: 2
Flags: W
HStem: 514 152<26 167 101 107 162 162 162 167 101 244>
VStem: 26 218<514 514>
LayerCount: 2
Fore
SplineSet
26 514 m 257
 101 666 l 257
 167 666 l 257
 244 514 l 257
 162 514 l 257
 134 571 l 257
 107 514 l 257
 26 514 l 257
EndSplineSet
Validated: 1
EndChar

StartChar: uni003A
Encoding: 26 58 95
GlifName: colon
Width: 250
VWidth: 0
GlyphClass: 2
Flags: W
HStem: -5 151<104 146> 285 151<104 146>
VStem: 50 150<49 91 339 381>
LayerCount: 2
Fore
SplineSet
50 70 m 256
 50 112 83 146 125 146 c 256
 167 146 200 112 200 70 c 256
 200 28 167 -5 125 -5 c 256
 83 -5 50 28 50 70 c 256
50 360 m 256
 50 402 83 436 125 436 c 256
 167 436 200 402 200 360 c 256
 200 318 167 285 125 285 c 256
 83 285 50 318 50 360 c 256
EndSplineSet
Validated: 1
EndChar

StartChar: uni002C
Encoding: 12 44 96
GlifName: comma
Width: 265
VWidth: 0
GlyphClass: 2
Flags: HW
LayerCount: 2
Fore
SplineSet
51 -23 m 261
 88 129 l 261
 215 129 l 261
 178 -23 l 261
 51 -23 l 261
EndSplineSet
EndChar

StartChar: uni00A9
Encoding: 104 169 97
GlifName: copyright
Width: 824
VWidth: 0
GlyphClass: 2
Flags: HW
HStem: -49 93<397 397 397 432> 112 89<351.5 432 432 461.5> 476 90<382.5 397 351.5 432> 636 90<397 397 397 432>
VStem: 35 89<332 339 332 339 337 339 332 464> 272 90<231 447> 705 89<332 339 338 339 327 427.5>
LayerCount: 2
Fore
SplineSet
35 327 m 256
 35 331 35 335 35 339 c 256
 35 589 249 725 397 726 c 257
 397 636 l 257
 268 635 124 516 124 339 c 256
 124 337 124 334 124 332 c 256
 127 179 251 51 397 44 c 257
 397 -49 l 257
 225 -43 41 104 35 327 c 256
272 231 m 257
 272 447 l 257
 272 485 306 566 397 566 c 257
 397 476 l 257
 368 476 362 450 362 447 c 257
 362 231 l 257
 362 228 368 203 397 203 c 257
 397 112 l 257
 306 112 272 193 272 231 c 257
432 44 m 257
 578 51 702 179 705 332 c 256
 705 334 705 337 705 339 c 256
 705 516 561 635 432 636 c 257
 432 726 l 257
 580 725 794 589 794 339 c 256
 794 335 794 331 794 327 c 256
 788 104 604 -43 432 -49 c 257
 432 44 l 257
432 112 m 257
 432 201 l 257
 432 201 453 207 459 222 c 256
 462 229 462 236 462 245 c 258
 462 264 l 257
 550 232 l 257
 550 171 491 112 432 112 c 257
432 476 m 257
 432 566 l 257
 491 566 550 507 550 446 c 257
 462 413 l 257
 462 432 l 258
 462 441 462 448 459 456 c 256
 453 470 432 476 432 476 c 257
EndSplineSet
EndChar

StartChar: uni00A4
Encoding: 99 164 98
GlifName: currency
Width: 646
VWidth: 0
GlyphClass: 2
Flags: HW
HStem: 133 118<271 300 294 300 294 347 294 341> 477 118<277.5 300 294 300 294 341 341 347>
VStem: 136 120<275 275 275 276 276 452> 383 117<275 451 451 452.5>
LayerCount: 2
Fore
SplineSet
40 540 m 257
 112 622 l 257
 188 555 l 257
 213 578 249 595 294 595 c 258
 300 595 l 257
 300 477 l 257
 294 477 l 258
 261 477 256 453 256 452 c 258
 256 276 l 258
 256 273 264 251 294 251 c 258
 300 251 l 257
 300 133 l 257
 294 133 l 258
 248 133 212 151 187 175 c 257
 112 109 l 257
 41 190 l 257
 136 275 l 256
 136 275 136 275 136 275 c 256
 136 455 l 256
 136 455 136 455 136 456 c 258
 40 540 l 257
341 133 m 257
 341 247 l 257
 347 247 l 258
 378 248 383 272 383 274 c 258
 383 451 l 258
 383 454 377 477 347 477 c 258
 341 477 l 257
 341 595 l 257
 347 595 l 258
 390 595 424 578 449 555 c 257
 524 622 l 257
 596 540 l 257
 500 456 l 258
 500 455 500 455 500 455 c 256
 500 275 l 256
 500 275 500 275 500 275 c 256
 595 190 l 257
 524 109 l 257
 450 174 l 257
 425 150 391 133 347 133 c 258
 341 133 l 257
EndSplineSet
EndChar

StartChar: uni0064
Encoding: 68 100 99
GlifName: d
Width: 461
VWidth: -8
GlyphClass: 2
Flags: HW
HStem: -9.11035 129.801<161.863 228.002> 428.69 129.8<165.287 228.002> 738.69 20G<280.801 419.402>
VStem: 30.0016 129.8<125.43 426.305> 280.801 138.601<-9.11035 758.69>
LayerCount: 2
Fore
SplineSet
30 145.990234375 m 258
 30 405.58984375 l 257
 31.1005859375 455.08984375 83.900390625 558.490234375 195 558.490234375 c 258
 228 558.490234375 l 257
 228 428.690429688 l 257
 195 428.690429688 l 257
 165.299804688 427.58984375 159.799804688 403.389648438 159.799804688 401.190429688 c 258
 159.799804688 148.190429688 l 257
 159.799804688 145.990234375 166.400390625 120.690429688 197.200195312 120.690429688 c 258
 228 120.690429688 l 257
 228 -9.1103515625 l 257
 197.200195312 -9.1103515625 l 258
 82.7998046875 -9.1103515625 30 97.58984375 30 145.990234375 c 258
280.799804688 -9.1103515625 m 257
 280.799804688 758.690429688 l 257
 419.400390625 758.690429688 l 257
 419.400390625 -9.1103515625 l 257
 280.799804688 -9.1103515625 l 257
EndSplineSet
EndChar

StartChar: uni2020
Encoding: 299 8224 100
GlifName: dagger
Width: 453
VWidth: 0
GlyphClass: 2
Flags: HW
HStem: 450 127<26 156 26 156 297 427>
VStem: 156 141<-56 450 -56 450 577 764>
LayerCount: 2
Fore
SplineSet
26 450 m 257
 26 577 l 257
 156 577 l 257
 156 764 l 257
 297 764 l 257
 297 577 l 257
 427 577 l 257
 427 450 l 257
 297 450 l 257
 297 -56 l 257
 156 -56 l 257
 156 450 l 257
 26 450 l 257
EndSplineSet
EndChar

StartChar: uni2021
Encoding: 300 8225 101
GlifName: daggerdbl
Width: 453
VWidth: 0
GlyphClass: 2
Flags: HW
HStem: 131 127<26 156 26 156 297 427> 450 127<26 156 26 156 297 427>
VStem: 156 141<-56 131 -56 131 258 450 577 764>
LayerCount: 2
Fore
SplineSet
26 131 m 257
 26 258 l 257
 156 258 l 257
 156 450 l 257
 26 450 l 257
 26 577 l 257
 156 577 l 257
 156 764 l 257
 297 764 l 257
 297 577 l 257
 427 577 l 257
 427 450 l 257
 297 450 l 257
 297 258 l 257
 427 258 l 257
 427 131 l 257
 297 131 l 257
 297 -56 l 257
 156 -56 l 257
 156 131 l 257
 26 131 l 257
EndSplineSet
EndChar

StartChar: uni00B0
Encoding: 111 176 102
GlifName: degree
Width: 301
VWidth: 0
GlyphClass: 2
Flags: HW
HStem: 468 77<139.5 161 139.5 182> 622 77
VStem: 35 77<572.5 594 572.5 615> 189 77<572.5 594>
LayerCount: 2
Fore
SplineSet
35 583 m 256
 35 647 87 698 150 698 c 256
 214 698 266 647 266 583 c 256
 266 520 214 468 150 468 c 256
 87 468 35 520 35 583 c 256
112 583 m 256
 112 562 129 545 150 545 c 256
 172 545 189 562 189 583 c 256
 189 605 172 622 150 622 c 256
 129 622 112 605 112 583 c 256
EndSplineSet
EndChar

StartChar: uni00A8
Encoding: 103 168 103
GlifName: dieresis
Width: 430
VWidth: 0
GlyphClass: 2
Flags: HW
LayerCount: 2
Fore
SplineSet
55 678 m 256
 55 720 88 754 130 754 c 256
 172 754 205 720 205 678 c 256
 205 636 172 603 130 603 c 256
 88 603 55 636 55 678 c 256
225 678 m 256
 225 720 258 754 300 754 c 256
 342 754 375 720 375 678 c 256
 375 636 342 603 300 603 c 256
 258 603 225 636 225 678 c 256
EndSplineSet
EndChar

StartChar: uni00F7
Encoding: 182 247 104
GlifName: divide
Width: 650
VWidth: 0
GlyphClass: 2
Flags: HW
HStem: 40 151 228 127<100 550 100 550> 393 151
VStem: 213 150
LayerCount: 2
Fore
SplineSet
68 228 m 261
 68 355 l 261
 518 355 l 261
 518 228 l 261
 68 228 l 261
EndSplineSet
Refer: 175 46 N 1 0 0 1 196 415 2
Refer: 175 46 N 1 0 0 1 196 62 2
EndChar

StartChar: uni0024
Encoding: 4 36 105
GlifName: dollar
Width: 481
VWidth: 0
GlyphClass: 2
Flags: HW
VStem: 28 134<469.698 556.339> 132 71<-47 24.8107 666.034 750> 258 71<-47 22.1824 668.09 750> 320 141<146.133 253.424>
LayerCount: 2
Fore
SplineSet
20 158 m 257
 147 203 l 257
 149 147 203 127 203 127 c 257
 203 -47 l 257x40
 132 -47 l 257
 132 13 l 257
 63 45 21 116 20 158 c 257
28 508 m 256x80
 28 599 81 652 132 679 c 257
 132 750 l 257
 203 750 l 257x40
 203 568 l 257x40
 182 562 162 537 162 513 c 256x80
 162 486 179 469 203 454 c 257
 203 302 l 257x40
 184 309 166 316 151 323 c 256
 80 357 28 403 28 508 c 256x80
258 -47 m 261
 258 127 l 261x20
 282 130 320 150 320 203 c 256x10
 320 241 293 263 258 280 c 257
 258 428 l 257x20
 284 418 310 407 333 394 c 256
 394 358 461 311 461 209 c 256x10
 461 122 404 44 329 12 c 257
 329 -47 l 257
 258 -47 l 261
258 568 m 257
 258 750 l 257
 329 750 l 257
 329 682 l 257x20
 392 649 428 580 433 553 c 257
 303 510 l 257
 298 557 258 568 258 568 c 257
EndSplineSet
EndChar

StartChar: uni02D9
Encoding: 285 729 106
GlifName: dotaccent
Width: 202
VWidth: 0
GlyphClass: 2
Flags: W
HStem: 603 151<80 122>
VStem: 26 150<657 699>
LayerCount: 2
Fore
SplineSet
26 678 m 256
 26 720 59 754 101 754 c 256
 143 754 176 720 176 678 c 256
 176 636 143 603 101 603 c 256
 59 603 26 636 26 678 c 256
EndSplineSet
Validated: 1
EndChar

StartChar: uni0131
Encoding: 222 305 107
GlifName: dotlessi
Width: 174
VWidth: 0
GlyphClass: 2
Flags: W
HStem: 0 21G<26 148>
VStem: 26 122<0 516>
LayerCount: 2
Fore
SplineSet
26 0 m 257
 26 516 l 257
 148 516 l 257
 148 0 l 257
 26 0 l 257
EndSplineSet
EndChar

StartChar: uni0065
Encoding: 69 101 108
GlifName: e
Width: 485
VWidth: 0
GlyphClass: 2
Flags: HW
HStem: -0.00976562 122.1<179.806 216 268.801 321.815> 228.79 127.6<172 320.5> 442.19 125.399<179.268 214.9 268.801 316.007>
VStem: 37.801 134.199<125.416 228.79 356.39 435.472> 320.5 125.4<356.39 437.837>
LayerCount: 2
Fore
SplineSet
37.80078125 155.08984375 m 258
 37.80078125 414.690429688 l 257
 38.900390625 464.190429688 97.2001953125 567.58984375 209.400390625 567.58984375 c 258
 214.900390625 567.58984375 l 257
 214.900390625 439.990234375 l 257
 211.600585938 439.990234375 l 258
 179.700195312 439.990234375 172 417.990234375 172 405.889648438 c 258
 172 356.389648438 l 257
 320.5 356.389648438 l 257
 320.5 405.889648438 l 258
 320.5 435.58984375 295.200195312 442.190429688 273.200195312 442.190429688 c 258
 268.80078125 442.190429688 l 257
 268.80078125 567.58984375 l 257
 275.400390625 567.58984375 l 258
 352.400390625 567.58984375 445.900390625 494.990234375 445.900390625 415.790039062 c 258
 445.900390625 228.790039062 l 257
 172 228.790039062 l 257
 172 155.08984375 l 258
 172 151.790039062 179.700195312 119.889648438 210.5 118.790039062 c 258
 216 118.790039062 l 257
 216 -0.009765625 l 257
 210.5 -0.009765625 l 258
 96.1005859375 -0.009765625 37.80078125 105.58984375 37.80078125 155.08984375 c 258
268.80078125 -0.009765625 m 257
 268.80078125 122.08984375 l 257
 275.400390625 122.08984375 l 258
 309.5 124.290039062 332.600585938 145.190429688 337 168.290039062 c 258
 338.100585938 172.690429688 l 257
 447 131.990234375 l 257
 445.900390625 129.790039062 l 256
 429.400390625 59.3896484375 352.400390625 -0.009765625 275.400390625 -0.009765625 c 258
 268.80078125 -0.009765625 l 257
EndSplineSet
EndChar

StartChar: uni0038
Encoding: 24 56 113
GlifName: eight
Width: 486
VWidth: 0
GlyphClass: 2
Flags: HW
HStem: 0 125<190 212 210 212 212 276 212 275> 571 127<179 214 179 272>
VStem: 26 128<183 226 183 234> 329 123<471.5 524> 332 128<183 226>
LayerCount: 2
Fore
SplineSet
26 199 m 256
 26 269 63 330 91 349 c 257
 77 352 33 415 33 499 c 256
 33 619 144 698 214 698 c 257
 214 571 l 257
 196 568 157 551 157 497 c 256
 157 446 177 424 213 413 c 257
 213 283 l 257
 181 274 154 251 154 201 c 256
 154 165 179 134 212 125 c 257
 211 0 l 257
 210 0 l 258
 170 0 26 53 26 199 c 256
272 571 m 257
 272 698 l 257
 342 698 452 619 452 499 c 256xf0
 452 415 409 352 395 349 c 257
 423 330 460 269 460 199 c 256
 460 53 316 0 276 0 c 258
 275 0 l 257
 274 125 l 257xe8
 307 134 332 165 332 201 c 256xe8
 332 251 305 274 273 283 c 257
 273 413 l 257
 309 424 329 446 329 497 c 256
 329 551 290 568 272 571 c 257
EndSplineSet
EndChar

StartChar: uni2014
Encoding: 292 8212 114
GlifName: emdash
Width: 906
VWidth: 0
GlyphClass: 2
Flags: HW
HStem: 230 127<26 880 26 880>
LayerCount: 2
Fore
SplineSet
26 230 m 257
 26 357 l 257
 880 357 l 257
 880 230 l 257
 26 230 l 257
EndSplineSet
EndChar

StartChar: uni2013
Encoding: 291 8211 115
GlifName: endash
Width: 532
VWidth: 0
GlyphClass: 2
Flags: HW
HStem: 230 127<26 506 26 506>
LayerCount: 2
Fore
SplineSet
26 230 m 257
 26 357 l 257
 506 357 l 257
 506 230 l 257
 26 230 l 257
EndSplineSet
EndChar

StartChar: uni003D
Encoding: 29 61 116
GlifName: equal
Width: 418
VWidth: 0
GlyphClass: 2
Flags: HW
HStem: 131 127<50 368 50 368> 325 127<50 368 50 368>
VStem: 50 318<131 258 131 258 325 452 131 452>
LayerCount: 2
Fore
SplineSet
50 131 m 257
 50 258 l 257
 368 258 l 257
 368 131 l 257
 50 131 l 257
50 325 m 257
 50 452 l 257
 368 452 l 257
 368 325 l 257
 50 325 l 257
EndSplineSet
EndChar

StartChar: uni00F0
Encoding: 175 240 117
GlifName: eth
Width: 420
VWidth: 0
GlyphClass: 2
Flags: HW
HStem: -1 118<132 192 186 192 233 239 186 233> 398 118<169.5 192 186 192 233 239 186 233>
VStem: 28 120<144.5 154 154 363> 275 117<152 363 363 364 364 371.5>
LayerCount: 2
Fore
SplineSet
28 141 m 258
 28 376 l 258
 28 421 79 516 186 516 c 258
 192 516 l 257
 192 398 l 257
 186 398 l 258
 153 398 148 373 148 363 c 258
 148 154 l 258
 148 135 156 117 186 117 c 258
 192 117 l 257
 192 -1 l 257
 186 -1 l 258
 78 -1 28 97 28 141 c 258
192 598 m 257
 242 614 l 257
 230 627 214 637 192 647 c 257
 192 714 l 257
 250 703 297 679 330 641 c 257
 380 657 l 257
 398 599 l 257
 364 588 l 257
 383 548 392 500 392 442 c 258
 392 376 l 257
 392 364 l 257
 392 141 l 258
 392 96 343 -1 239 -1 c 258
 233 -1 l 257
 233 117 l 257
 239 117 l 258
 270 118 275 141 275 152 c 258
 275 363 l 258
 275 380 269 398 239 398 c 258
 233 398 l 257
 233 516 l 257
 239 516 l 258
 251 516 262 515 273 512 c 257
 271 530 270 545 267 558 c 257
 210 541 l 257
 192 598 l 257
EndSplineSet
EndChar

StartChar: uni0021
Encoding: 1 33 118
GlifName: exclam
Width: 244
VWidth: 0
GlyphClass: 2
Flags: HW
LayerCount: 2
Fore
SplineSet
47 53 m 260
 47 95 80 129 122 129 c 260
 164 129 197 95 197 53 c 260
 197 11 164 -22 122 -22 c 260
 80 -22 47 11 47 53 c 260
59 166 m 261
 59 700 l 261
 188 700 l 261
 188 166 l 261
 59 166 l 261
EndSplineSet
EndChar

StartChar: uni00A1
Encoding: 96 161 119
GlifName: exclamdown
Width: 245
VWidth: -9
GlyphClass: 2
Flags: HW
HStem: 0 21<38 167 38 38> 0 21<38 167 38 38> 571 151<80 122>
VStem: 26 150<626 668> 38 129<0 534 0 534>
LayerCount: 2
Back
SplineSet
26 647 m 256x30
 26 689 59 722 101 722 c 256
 143 722 176 689 176 647 c 256
 176 605 143 571 101 571 c 256
 59 571 26 605 26 647 c 256x30
38 534 m 257xa8
 167 534 l 257
 167 0 l 257
 38 0 l 257
 38 534 l 257xa8
EndSplineSet
Validated: 1
Fore
SplineSet
21.400390625 494.639648438 m 260
 21.400390625 538.639648438 57.7001953125 574.940429688 101.700195312 574.940429688 c 260
 145.700195312 574.940429688 182 538.639648438 182 494.639648438 c 260xc0
 182 451.740234375 145.700195312 415.440429688 101.700195312 415.440429688 c 260
 57.7001953125 415.440429688 21.400390625 451.740234375 21.400390625 494.639648438 c 260
35.7001953125 -198.360351562 m 261
 35.7001953125 369.240234375 l 261
 169.900390625 369.240234375 l 261
 169.900390625 -198.360351562 l 261xa0
 35.7001953125 -198.360351562 l 261
EndSplineSet
EndChar

StartChar: uni0066
Encoding: 70 102 120
GlifName: f
Width: 321
VWidth: -8
GlyphClass: 2
Flags: HW
HStem: 430.99 127.6<15.199 84.4998 218.699 291.299> 627.89 128.7<223.541 291.299>
VStem: 84.4998 134.199<-9.00977 430.99 558.59 625.023>
LayerCount: 2
Fore
SplineSet
15.19921875 430.990234375 m 257
 15.19921875 558.58984375 l 257
 84.5 558.58984375 l 257
 84.5 598.190429688 l 258
 84.5 647.690429688 140.599609375 755.490234375 253.899414062 756.58984375 c 258
 321 756.58984375 l 257
 291.299804688 627.889648438 l 257
 255 627.889648438 l 257
 224.19921875 626.790039062 218.69921875 601.490234375 218.69921875 598.190429688 c 258
 218.69921875 557.490234375 l 257
 291.299804688 558.58984375 l 257
 291.299804688 430.990234375 l 257
 218.69921875 430.990234375 l 257
 218.69921875 -9.009765625 l 257
 84.5 -9.009765625 l 257
 84.5 430.990234375 l 257
 15.19921875 430.990234375 l 257
EndSplineSet
EndChar

StartChar: uniFB01
Encoding: 329 64257 121
GlifName: fi
Width: 494
VWidth: 0
GlyphClass: 2
Flags: HW
HStem: 0 21<89 211 89 89 335 457 335 335> 0 21<89 211 89 89 335 457 335 335> 400 116<26 89 26 89 211 335> 558 145<375 415> 579 117<244 277 244 244>
VStem: 89 122<0 400 0 400 516 552> 322 146<610.5 650> 335 122<0 400 400 400>
LayerCount: 2
Fore
SplineSet
26 400 m 257
 26 516 l 257
 89 516 l 257
 89 552 l 258
 89 597 140 695 243 696 c 258
 304 696 l 257
 277 579 l 257
 244 579 l 258
 216 578 211 555 211 552 c 258
 211 516 l 257
 457 516 l 257
 457 0 l 257
 335 0 l 257
 335 400 l 257
 211 400 l 257
 211 0 l 257
 89 0 l 257xad
 89 400 l 257
 26 400 l 257
322 630 m 256
 322 670 355 703 395 703 c 256
 435 703 468 670 468 630 c 256x36
 468 591 435 558 395 558 c 256
 355 558 322 591 322 630 c 256
EndSplineSet
EndChar

StartChar: uni0035
Encoding: 21 53 122
GlifName: five
Width: 475
VWidth: 0
GlyphClass: 2
Flags: HW
HStem: 0 126<156 198 198 252> 324 123<189.5 198 189.5 252> 573 127<165 165>
VStem: 332 128<199 252>
LayerCount: 2
Fore
SplineSet
20 354 m 257
 49 700 l 257
 403 700 l 257
 403 574 l 257
 165 573 l 257
 153 442 l 257
 166 445 181 447 198 447 c 257
 198 324 l 257
 164 321 142 301 130 286 c 257
 20 354 l 257
22 107 m 257
 125 175 l 257
 141 144 171 131 198 126 c 257
 198 0 l 257
 114 0 54 46 22 107 c 257
252 0 m 257
 252 126 l 257
 301 135 332 174 332 224 c 256
 332 280 290 319 252 324 c 257
 252 447 l 257
 395 444 460 333 460 223 c 256
 460 82 357 2 252 0 c 257
EndSplineSet
EndChar

StartChar: uniFB02
Encoding: 330 64258 123
GlifName: fl
Width: 483
VWidth: 0
GlyphClass: 2
Flags: HW
HStem: 0 21<89 211 89 89 331 457 331 331> 0 21<89 211 89 89 331 457 331 331> 400 116<26 89 26 89> 579 117<244 331 244 244>
VStem: 89 122<0 400 0 400 516 552> 331 126<0 579 579 579>
LayerCount: 2
Fore
SplineSet
26 400 m 257
 26 516 l 257
 89 516 l 257
 89 552 l 258
 89 597 140 695 243 696 c 258
 457 696 l 257
 457 0 l 257xbc
 331 0 l 257
 331 579 l 257
 244 579 l 258
 216 578 211 555 211 552 c 258
 211 515 l 257
 277 516 l 257
 277 400 l 257
 211 400 l 257
 211 0 l 257
 89 0 l 257
 89 400 l 257
 26 400 l 257
EndSplineSet
EndChar

StartChar: uni0192
Encoding: 276 402 124
GlifName: florin
Width: 382
VWidth: 0
GlyphClass: 2
Flags: HW
HStem: -168 105<53 108 53 109 26 108> 400 116<78 141 78 141> 579 117<296 329 296 296>
VStem: 141 122<-36 -30 -30 0 0 7 7 400 516 552>
LayerCount: 2
Fore
SplineSet
26 -168 m 257
 53 -63 l 257
 108 -63 l 258
 136 -62 141 -39 141 -36 c 258
 141 0 l 257
 141 7 l 257
 141 400 l 257
 78 400 l 257
 78 516 l 257
 141 516 l 257
 141 552 l 258
 141 597 192 695 295 696 c 258
 356 696 l 257
 329 579 l 257
 296 579 l 258
 268 578 263 555 263 552 c 258
 263 515 l 257
 329 516 l 257
 329 400 l 257
 263 400 l 257
 263 7 l 257
 263 0 l 257
 263 -30 l 258
 263 -92 221 -168 109 -168 c 258
 26 -168 l 257
EndSplineSet
EndChar

StartChar: uni0034
Encoding: 20 52 125
GlifName: four
Width: 497
VWidth: 0
GlyphClass: 2
Flags: HW
HStem: 0 21<273 403 273 273> 0 21<273 403 273 273> 145 127<170 216 26 26 403 457> 681 20<273 403 403 403>
VStem: 26 190<145 272 145 272> 273 184<145 272 145 701> 273 130<0 145 0 272 272 701>
LayerCount: 2
Fore
SplineSet
26 145 m 257
 26 272 l 257
 216 598 l 257
 216 351 l 257
 170 272 l 257
 216 272 l 257x38
 216 145 l 257
 26 145 l 257
273 0 m 257xba
 273 701 l 257xbc
 403 701 l 257
 403 272 l 257xba
 457 272 l 257xbc
 457 145 l 257xbc
 403 145 l 257
 403 0 l 257
 273 0 l 257xba
EndSplineSet
EndChar

StartChar: uni2044
Encoding: 306 8260 126
GlifName: fraction
Width: 560
VWidth: 0
GlyphClass: 2
Flags: W
HStem: 682 20<458 534 534 534>
LayerCount: 2
Fore
SplineSet
26 -2 m 257
 458 702 l 257
 534 702 l 257
 109 -2 l 257
 26 -2 l 257
EndSplineSet
Validated: 1
EndChar

StartChar: uni0067
Encoding: 71 103 127
GlifName: g
Width: 456
VWidth: 9
GlyphClass: 2
Flags: HW
HStem: -190.06 123.199<50.8 286.088> 7.94043 121<163.603 202.6 245.5 286.749> 452.34 124.3<159.26 202.6 245.5 287.114>
VStem: 29.8996 126.5<138.923 448.081> 245.5 173.801<12.3398 128.94 452.34 571.14> 290.6 128.7<-60.8529 12.3398 133.566 448.321 571.14 576.64>
LayerCount: 2
Fore
SplineSet
20 -190.059570312 m 257
 50.80078125 -66.8603515625 l 257
 248.80078125 -66.8603515625 l 257
 282.900390625 -65.759765625 290.600585938 -38.259765625 290.600585938 -34.9599609375 c 258
 290.600585938 12.33984375 l 257xf4
 277.400390625 9.0400390625 264.200195312 7.9404296875 248.80078125 7.9404296875 c 258
 245.5 7.9404296875 l 257
 245.5 128.940429688 l 257xf8
 248.80078125 128.940429688 l 258
 282.900390625 130.040039062 290.600585938 158.639648438 290.600585938 161.940429688 c 258
 290.600585938 420.440429688 l 258xf4
 290.600585938 423.740234375 282.900390625 452.33984375 248.80078125 452.33984375 c 258
 245.5 452.33984375 l 257
 245.5 576.639648438 l 257xf8
 248.80078125 576.639648438 l 258
 263.100585938 576.639648438 278.5 574.440429688 290.600585938 571.139648438 c 257
 290.600585938 576.639648438 l 257
 419.30078125 576.639648438 l 257
 419.30078125 -34.9599609375 l 258
 419.30078125 -82.259765625 364.30078125 -188.959960938 251 -190.059570312 c 257xf4
 20 -190.059570312 l 257
29.900390625 161.940429688 m 258
 29.900390625 424.83984375 l 257
 31 473.240234375 84.900390625 576.639648438 199.30078125 576.639648438 c 258
 202.600585938 576.639648438 l 257
 202.600585938 452.33984375 l 257
 199.30078125 452.33984375 l 258
 164.100585938 452.33984375 156.400390625 424.83984375 156.400390625 421.540039062 c 258
 156.400390625 163.040039062 l 258
 156.400390625 159.740234375 165.200195312 132.240234375 199.30078125 132.240234375 c 258
 202.600585938 132.240234375 l 257
 202.600585938 7.9404296875 l 257
 199.30078125 7.9404296875 l 258
 83.80078125 7.9404296875 29.900390625 114.639648438 29.900390625 161.940429688 c 258
EndSplineSet
EndChar

StartChar: uni00DF
Encoding: 158 223 128
GlifName: germandbls
Width: 522
VWidth: 0
GlyphClass: 2
Flags: HW
HStem: 0 109<26 327 199 327 199 327> 586 119<199.5 242>
VStem: 26 129<0 457 457 457> 191 114<355 364.5 355 408.5> 294 112<507 518 405 519 405 545.5> 379 117<136.5 175.5>
LayerCount: 2
Fore
SplineSet
26 0 m 257
 26 457 l 258
 27 531 16 705 226 705 c 256
 396 705 406 575 406 518 c 258
 406 405 l 257xe8
 342 406 l 257
 308 400 305 368 305 361 c 256
 305 349 310 326 391 299 c 256
 441 282 496 243 496 160 c 256
 496 57 420 0 327 0 c 258
 199 0 l 257
 199 109 l 257
 327 109 l 258
 342 110 379 120 379 153 c 256
 379 198 331 200 276 228 c 256
 228 252 191 287 191 371 c 256xf4
 191 446 244 489 294 507 c 257
 294 519 l 258
 294 572 259 586 225 586 c 256
 174 586 155 554 155 498 c 258
 155 0 l 257xe8
 26 0 l 257
EndSplineSet
EndChar

StartChar: uni0060
Encoding: 64 96 129
GlifName: grave
Width: 346
VWidth: 0
GlyphClass: 2
Flags: HW
HStem: 605 152<115 115 115 169 42 206>
VStem: 42 164<605 757>
LayerCount: 2
Fore
SplineSet
42 757 m 257
 169 757 l 257
 206 605 l 257
 115 605 l 257
 42 757 l 257
EndSplineSet
EndChar

StartChar: uni003E
Encoding: 30 62 130
GlifName: greater
Width: 414
VWidth: 0
GlyphClass: 2
Flags: HW
LayerCount: 2
Fore
SplineSet
30 79 m 257
 30 206 l 257
 206 292 l 257
 30 370 l 257
 30 500 l 257
 384 322 l 257
 384 258 l 257
 30 79 l 257
EndSplineSet
EndChar

StartChar: uni00AB
Encoding: 106 171 131
GlifName: guillemotleft
Width: 457
VWidth: 0
GlyphClass: 2
Flags: HW
LayerCount: 2
Fore
SplineSet
20 259 m 257
 20 321 l 257
 231 477 l 257
 231 352 l 257
 142 292 l 257
 231 224 l 257
 231 102 l 257
 20 259 l 257
231 259 m 257
 231 321 l 257
 442 477 l 257
 442 352 l 257
 353 292 l 257
 442 224 l 257
 442 102 l 257
 231 259 l 257
EndSplineSet
EndChar

StartChar: uni00BB
Encoding: 122 187 132
GlifName: guillemotright
Width: 457
VWidth: 0
GlyphClass: 2
Flags: HW
LayerCount: 2
Fore
SplineSet
15 102 m 257
 15 224 l 257
 104 292 l 257
 15 352 l 257
 15 477 l 257
 226 321 l 257
 226 259 l 257
 15 102 l 257
226 102 m 257
 226 224 l 257
 315 292 l 257
 226 352 l 257
 226 477 l 257
 437 321 l 257
 437 259 l 257
 226 102 l 257
EndSplineSet
EndChar

StartChar: uni2039
Encoding: 304 8249 133
GlifName: guilsinglleft
Width: 338
VWidth: 0
GlyphClass: 2
Flags: HW
VStem: 26 286<79 292>
LayerCount: 2
Fore
SplineSet
26 292 m 257
 157 500 l 257
 312 500 l 257
 181 292 l 257
 312 79 l 257
 157 79 l 257
 26 292 l 257
EndSplineSet
EndChar

StartChar: uni203A
Encoding: 305 8250 134
GlifName: guilsinglright
Width: 338
VWidth: 0
GlyphClass: 2
Flags: HW
VStem: 26 286<79 292 292 500>
LayerCount: 2
Fore
SplineSet
26 79 m 257
 157 292 l 257
 26 500 l 257
 181 500 l 257
 312 292 l 257
 181 79 l 257
 26 79 l 257
EndSplineSet
EndChar

StartChar: uni0068
Encoding: 72 104 135
GlifName: h
Width: 473
VWidth: -8
GlyphClass: 2
Flags: HW
HStem: 429.74 123.2<176.071 220.8 270.3 311.513> 738.64 20G<41.5 166.9>
VStem: 41.5 179.3<429.74 546.34> 41.5 126.5<-8.05957 420.711 546.34 758.64> 317.6 125.4<-8.05957 423.646>
LayerCount: 2
Fore
SplineSet
41.5 -8.0595703125 m 257
 41.5 758.639648438 l 257xd8
 166.900390625 758.639648438 l 257
 166.900390625 546.33984375 l 257
 170.200195312 547.440429688 l 258
 183.400390625 550.740234375 202.099609375 552.940429688 217.5 552.940429688 c 258
 220.799804688 552.940429688 l 257
 220.799804688 429.740234375 l 257xe8
 217.5 429.740234375 l 258
 182.299804688 426.440429688 168 397.83984375 168 392.33984375 c 258
 168 -8.0595703125 l 257xd8
 41.5 -8.0595703125 l 257
270.299804688 429.740234375 m 257
 270.299804688 552.940429688 l 257
 273.599609375 552.940429688 l 256
 380.299804688 548.540039062 443 479.240234375 443 402.240234375 c 258
 443 -8.0595703125 l 257
 317.599609375 -8.0595703125 l 257
 317.599609375 392.33984375 l 258
 317.599609375 396.740234375 311 426.440429688 273.599609375 429.740234375 c 258
 270.299804688 429.740234375 l 257
EndSplineSet
EndChar

StartChar: uni02DD
Encoding: 289 733 136
GlifName: hungarumlaut
Width: 336
VWidth: 0
GlyphClass: 2
Flags: HW
HStem: 605 152<55 109 26 167 55 169 198 252>
VStem: 26 284<605 757>
LayerCount: 2
Fore
SplineSet
26 605 m 257
 55 757 l 257
 167 757 l 257
 109 605 l 257
 26 605 l 257
169 605 m 257
 198 757 l 257
 310 757 l 257
 252 605 l 257
 169 605 l 257
EndSplineSet
EndChar

StartChar: uni002D
Encoding: 13 45 137
GlifName: hyphen
Width: 416
VWidth: 0
GlyphClass: 2
Flags: HW
LayerCount: 2
Fore
SplineSet
50 230 m 257
 50 357 l 257
 366 357 l 257
 366 230 l 257
 50 230 l 257
EndSplineSet
EndChar

StartChar: uni0069
Encoding: 73 105 138
GlifName: i
Width: 245
VWidth: -9
GlyphClass: 2
Flags: HW
HStem: 604.44 159.5<67.4323 177.967>
VStem: 42.4 160.6<629.322 738.908> 56.6998 134.2<-9.36035 558.24>
LayerCount: 2
Fore
SplineSet
42.400390625 683.639648438 m 260
 42.400390625 727.639648438 78.7001953125 763.940429688 122.700195312 763.940429688 c 260
 166.700195312 763.940429688 203 727.639648438 203 683.639648438 c 260xc0
 203 640.740234375 166.700195312 604.440429688 122.700195312 604.440429688 c 260
 78.7001953125 604.440429688 42.400390625 640.740234375 42.400390625 683.639648438 c 260
56.7001953125 -9.3603515625 m 261
 56.7001953125 558.240234375 l 261
 190.900390625 558.240234375 l 261
 190.900390625 -9.3603515625 l 261xa0
 56.7001953125 -9.3603515625 l 261
EndSplineSet
EndChar

StartChar: uni006A
Encoding: 74 106 143
GlifName: j
Width: 242
VWidth: 0
GlyphClass: 2
Flags: HW
HStem: -199.36 128.7<-12.2998 50.7501> 547.34 20G<53.7002 187.9> 611.34 160.601<65.8467 173.554>
VStem: 39.4004 160.6<635.797 746.332> 53.7002 134.2<-66.6247 567.34>
LayerCount: 2
Fore
SplineSet
-42 -199.360351562 m 257
 -12.2998046875 -70.66015625 l 257
 17.400390625 -70.66015625 l 257
 48.2001953125 -69.5595703125 53.7001953125 -44.259765625 53.7001953125 -42.0595703125 c 258
 53.7001953125 567.33984375 l 257
 187.900390625 567.33984375 l 257
 187.900390625 -42.0595703125 l 258xe8
 187.900390625 -93.759765625 132.900390625 -199.360351562 20.7001953125 -199.360351562 c 258
 -42 -199.360351562 l 257
39.400390625 690.540039062 m 256
 39.400390625 734.540039062 75.7001953125 771.940429688 119.700195312 771.940429688 c 256
 163.700195312 771.940429688 200 734.540039062 200 690.540039062 c 256xf0
 200 646.540039062 163.700195312 611.33984375 119.700195312 611.33984375 c 256
 75.7001953125 611.33984375 39.400390625 646.540039062 39.400390625 690.540039062 c 256
EndSplineSet
EndChar

StartChar: uni006B
Encoding: 75 107 144
GlifName: k
Width: 500
VWidth: -8
GlyphClass: 2
Flags: HW
HStem: 738.69 20G<42.199 179.699>
VStem: 42.199 137.5<-9.11035 758.69>
LayerCount: 2
Fore
SplineSet
42.19921875 -9.1103515625 m 257
 42.19921875 758.690429688 l 257
 179.69921875 758.690429688 l 257
 179.69921875 -9.1103515625 l 257
 42.19921875 -9.1103515625 l 257
210.5 273.58984375 m 257
 333.69921875 556.290039062 l 257
 480 556.290039062 l 257
 353.5 273.58984375 l 257
 480 -9.1103515625 l 257
 334.799804688 -9.1103515625 l 257
 210.5 273.58984375 l 257
EndSplineSet
EndChar

StartChar: uni006C
Encoding: 76 108 145
GlifName: l
Width: 228
VWidth: -8
GlyphClass: 2
Flags: HW
HStem: 738.69 20G<41.8992 185.999>
VStem: 41.8992 144.1<-9.11035 758.69>
LayerCount: 2
Fore
SplineSet
41.900390625 -9.1103515625 m 257
 41.900390625 758.690429688 l 257
 186 758.690429688 l 257
 186 -9.1103515625 l 257
 41.900390625 -9.1103515625 l 257
EndSplineSet
EndChar

StartChar: uni003C
Encoding: 28 60 146
GlifName: less
Width: 414
VWidth: 0
GlyphClass: 2
Flags: HW
LayerCount: 2
Fore
SplineSet
30 258 m 257
 30 322 l 257
 384 500 l 257
 384 370 l 257
 208 292 l 257
 384 206 l 257
 384 79 l 257
 30 258 l 257
EndSplineSet
EndChar

StartChar: uni00AC
Encoding: 107 172 147
GlifName: logicalnot
Width: 540
VWidth: 0
GlyphClass: 2
Flags: HW
HStem: 327 115<40 372 40 490>
VStem: 372 118<208 327 327 327>
LayerCount: 2
Fore
SplineSet
40 327 m 257
 40 442 l 257
 490 442 l 257
 490 208 l 257
 372 208 l 257
 372 327 l 257
 40 327 l 257
EndSplineSet
EndChar

StartChar: uni0142
Encoding: 232 322 148
GlifName: lslash
Width: 424
VWidth: 0
GlyphClass: 2
Flags: HW
HStem: 738.69 20G<140.45 284.55>
VStem: 140.45 144.1<-9.11035 758.69>
LayerCount: 2
Fore
SplineSet
26 302 m 257
 326 536 l 257
 398 443 l 257
 98 209 l 257
 26 302 l 257
EndSplineSet
Refer: 145 108 N 1 0 0 1 117 0 2
EndChar

StartChar: uni006D
Encoding: 77 109 149
GlifName: m
Width: 762
VWidth: 0
GlyphClass: 2
Flags: HW
HStem: -0.160156 21G<37.6012 174.001 312.601 449.001 587.601 724.001> 437.64 133.101<176.62 219.101 265.301 310.226 451.376 496.301 541.401 584.205>
VStem: 37.6012 136.4<-0.160156 433.479> 312.601 136.4<-0.160156 434.38> 587.601 136.4<-0.160156 432.621>
CounterMasks: 1 38
LayerCount: 2
Fore
SplineSet
37.599609375 -0.16015625 m 257
 37.599609375 414.540039062 l 258
 37.599609375 467.33984375 97 570.740234375 212.5 570.740234375 c 258
 219.099609375 570.740234375 l 257
 219.099609375 437.639648438 l 257
 212.5 437.639648438 l 258
 179.5 437.639648438 174 411.240234375 174 409.040039062 c 257
 174 -0.16015625 l 257
 37.599609375 -0.16015625 l 257
265.299804688 437.639648438 m 257
 265.299804688 570.740234375 l 257
 271.899414062 570.740234375 l 258
 318.099609375 570.740234375 353.299804688 555.33984375 380.799804688 534.440429688 c 257
 408.299804688 556.440429688 443.5 570.740234375 489.700195312 570.740234375 c 258
 496.299804688 570.740234375 l 257
 496.299804688 437.639648438 l 257
 489.700195312 437.639648438 l 258
 455.599609375 437.639648438 449 411.240234375 449 409.040039062 c 257
 449 -0.16015625 l 257
 312.599609375 -0.16015625 l 257
 312.599609375 409.040039062 l 258
 312.599609375 412.33984375 304.899414062 437.639648438 271.899414062 437.639648438 c 258
 265.299804688 437.639648438 l 257
541.399414062 437.639648438 m 257
 541.399414062 570.740234375 l 257
 548 570.740234375 l 258
 664.599609375 570.740234375 724 464.040039062 724 414.540039062 c 258
 724 -0.16015625 l 257
 587.599609375 -0.16015625 l 257
 587.599609375 409.040039062 l 257
 587.599609375 412.33984375 581 437.639648438 548 437.639648438 c 258
 541.399414062 437.639648438 l 257
EndSplineSet
EndChar

StartChar: uni00B5
Encoding: 116 181 152
GlifName: mu
Width: 491
VWidth: 0
GlyphClass: 2
Flags: HW
HStem: 0 21<35 159 35 35> 0 21<35 159 35 35> 179 121<189.5 201 196 201 196 243 243 248> 678 20<35 159 159 159 285 285 409 409> 680 20<285 409 409 409>
VStem: 35 166<179 300 179 321 179 356 179 698> 35 124<0 183 0 321 324.5 326 326 356 356 698> 285 124<326.5 328 328 698 698 700>
LayerCount: 2
Fore
SplineSet
35 0 m 257xb3
 35 321 l 257
 35 356 l 257
 35 698 l 257xb5
 159 698 l 257
 159 356 l 257
 159 326 l 258xb3
 159 323 165 300 196 300 c 258
 201 300 l 257
 201 179 l 257xb5
 196 179 l 258
 183 179 171 180 159 183 c 257
 159 0 l 257
 35 0 l 257xb3
243 179 m 257
 243 300 l 257
 248 300 l 258
 279 300 285 324 285 326 c 258
 285 698 l 257x31
 285 700 l 257x29
 409 700 l 257x29
 409 698 l 257
 409 328 l 258
 409 325 415 302 446 302 c 258
 451 302 l 257
 451 181 l 257
 446 181 l 258
 406 181 373 194 348 213 c 257
 322 193 289 179 248 179 c 258
 243 179 l 257
EndSplineSet
EndChar

StartChar: uni00D7
Encoding: 150 215 153
GlifName: multiply
Width: 697
VWidth: 0
GlyphClass: 2
Flags: HW
LayerCount: 2
Fore
SplineSet
100 578 m 257
 189 667 l 257
 349 507 l 257
 508 666 l 257
 597 577 l 257
 438 418 l 257
 597 259 l 257
 507 170 l 257
 349 328 l 257
 190 168 l 257
 101 257 l 257
 260 417 l 257
 100 578 l 257
EndSplineSet
EndChar

StartChar: uni006E
Encoding: 78 110 154
GlifName: n
Width: 487
VWidth: 0
GlyphClass: 2
Flags: HW
HStem: -0.160156 21G<37.6008 174.001 312.601 449.001> 437.64 133.101<178.175 220.201 266.401 308.427>
VStem: 37.6008 136.4<-0.160156 433.479> 312.601 136.4<-0.160156 432.621>
LayerCount: 2
Fore
SplineSet
37.599609375 -0.16015625 m 257
 37.599609375 414.540039062 l 258
 37.599609375 467.33984375 97 570.740234375 214.700195312 570.740234375 c 258
 220.200195312 570.740234375 l 257
 220.200195312 437.639648438 l 257
 214.700195312 437.639648438 l 258
 180.599609375 437.639648438 174 411.240234375 174 409.040039062 c 257
 174 -0.16015625 l 257
 37.599609375 -0.16015625 l 257
266.399414062 437.639648438 m 257
 266.399414062 570.740234375 l 257
 271.899414062 570.740234375 l 258
 389.599609375 570.740234375 449 464.040039062 449 414.540039062 c 258
 449 -0.16015625 l 257
 312.599609375 -0.16015625 l 257
 312.599609375 409.040039062 l 257
 312.599609375 412.33984375 304.899414062 437.639648438 271.899414062 437.639648438 c 258
 266.399414062 437.639648438 l 257
EndSplineSet
EndChar

StartChar: uni0039
Encoding: 25 57 155
GlifName: nine
Width: 513
VWidth: 0
GlyphClass: 2
Flags: HW
HStem: 1 126<179 218> 274 118<156 273 272 273 272 287> 576 124<218 218>
VStem: 26 119<450 515.5 450 547.5> 349 129<282.5 300>
LayerCount: 2
Fore
SplineSet
26 485 m 256
 26 610 117 699 218 700 c 257
 218 576 l 257
 183 572 145 540 145 491 c 256
 145 409 198 395 217 390 c 257
 218 274 l 257
 94 274 26 359 26 485 c 256
43 115 m 257
 142 178 l 257
 164 150 175 132 218 127 c 257
 218 1 l 257
 140 1 76 51 43 115 c 257
272 2 m 257
 272 127 l 257
 344 142 349 248 349 300 c 257
 330 285 302 274 272 274 c 257
 272 392 l 257
 273 392 l 256
 293 397 340 413 340 490 c 256
 340 529 310 571 272 575 c 257
 272 700 l 257
 447 700 478 513 478 341 c 256
 478 224 444 6 272 2 c 257
EndSplineSet
EndChar

StartChar: uni0023
Encoding: 3 35 157
GlifName: numbersign
Width: 888
VWidth: 0
GlyphClass: 2
Flags: HW
HStem: 176 121<126 241 101 263 126 362 126 383 126 467> 404 121<157 281 135 303 157 402 157 507>
LayerCount: 2
Fore
SplineSet
101 176 m 257
 126 297 l 257
 263 297 l 257
 281 404 l 257
 135 404 l 257
 157 525 l 257
 303 525 l 257
 330 682 l 257
 451 682 l 257
 423 524 l 257
 529 524 l 257
 556 682 l 257
 677 682 l 257
 649 524 l 257
 787 524 l 257
 768 403 l 257
 628 404 l 257
 609 296 l 257
 752 296 l 257
 734 175 l 257
 588 176 l 257
 561 22 l 257
 441 22 l 257
 467 176 l 257
 362 176 l 257
 335 22 l 257
 214 22 l 257
 241 176 l 257
 101 176 l 257
383 297 m 257
 489 296 l 257
 507 404 l 257
 402 404 l 257
 383 297 l 257
EndSplineSet
Colour: ff0000
EndChar

StartChar: uni006F
Encoding: 79 111 158
GlifName: o
Width: 476
VWidth: 0
GlyphClass: 2
Flags: HW
HStem: -1.05957 129.8<175.099 218.403 263.502 305.477> 437.84 129.8<175.385 218.403 263.502 305.191>
VStem: 38.0028 132<134.532 434.353> 309.702 128.7<134.216 434.469>
LayerCount: 2
Fore
SplineSet
38 155.139648438 m 258
 38 413.639648438 l 258
 38 463.139648438 94.1005859375 567.639648438 211.799804688 567.639648438 c 258
 218.400390625 567.639648438 l 257
 218.400390625 437.83984375 l 257
 211.799804688 437.83984375 l 258
 175.5 437.83984375 170 410.33984375 170 399.33984375 c 257
 170 169.440429688 l 257
 170 148.540039062 178.799804688 128.740234375 211.799804688 128.740234375 c 258
 218.400390625 128.740234375 l 257
 218.400390625 -1.0595703125 l 257
 211.799804688 -1.0595703125 l 258
 93 -1.0595703125 38 106.740234375 38 155.139648438 c 258
263.5 -1.0595703125 m 257
 263.5 128.740234375 l 257
 270.100585938 128.740234375 l 258
 304.200195312 129.83984375 309.700195312 155.139648438 309.700195312 167.240234375 c 257
 309.700195312 399.33984375 l 257
 309.700195312 418.040039062 303.100585938 437.83984375 270.100585938 437.83984375 c 258
 263.5 437.83984375 l 257
 263.5 567.639648438 l 257
 270.100585938 567.639648438 l 258
 383.400390625 567.639648438 438.400390625 463.139648438 438.400390625 413.639648438 c 258
 438.400390625 155.139648438 l 258
 438.400390625 105.639648438 384.5 -1.0595703125 270.100585938 -1.0595703125 c 258
 263.5 -1.0595703125 l 257
EndSplineSet
EndChar

StartChar: uni0153
Encoding: 244 339 162
GlifName: oe
Width: 671
VWidth: 0
GlyphClass: 2
Flags: HW
HStem: -1 114<130 190 184 190 231 237 184 231> 208 116<395 530 395 644 395 530> 398 118<167.5 190 184 190 231 237 184 231>
VStem: 26 120<141 142 142 373> 273 122<140 141 141 208 324 369> 530 114<324 369 369 378>
LayerCount: 2
Fore
SplineSet
26 141 m 258
 26 376 l 258
 26 421 77 516 184 516 c 258
 190 516 l 257
 190 398 l 257
 184 398 l 258
 151 398 146 374 146 373 c 258
 146 142 l 258
 146 139 154 113 184 113 c 258
 190 113 l 257
 190 -1 l 257
 184 -1 l 258
 76 -1 26 97 26 141 c 258
231 -1 m 257
 231 113 l 257
 237 113 l 258
 268 114 273 138 273 140 c 258
 273 372 l 258
 273 375 267 398 237 398 c 258
 231 398 l 257
 231 516 l 257
 237 516 l 258
 277 516 309 502 333 482 c 257
 358 502 390 516 429 516 c 258
 434 516 l 257
 434 400 l 257
 431 400 l 258
 402 400 395 380 395 369 c 258
 395 324 l 257
 530 324 l 257
 530 369 l 258
 530 396 507 402 487 402 c 258
 483 402 l 257
 483 516 l 257
 489 516 l 258
 559 516 644 450 644 378 c 258
 644 208 l 257
 395 208 l 257
 395 141 l 258
 395 138 402 109 430 108 c 258
 489 108 l 258
 519 108 541 132 545 153 c 258
 546 157 l 257
 645 120 l 257
 644 118 l 257
 629 54 559 0 489 0 c 258
 430 0 l 258
 390 0 359 14 334 34 c 257
 310 14 277 -1 237 -1 c 258
 231 -1 l 257
EndSplineSet
EndChar

StartChar: uni0031
Encoding: 17 49 164
GlifName: one
Width: 288
VWidth: 0
GlyphClass: 2
Flags: HW
HStem: 0 21<116 246 116 116> 0 21<116 246 116 116> 679 20<116 246 246 246> 679 20<116 246 246 246>
VStem: 40 206<439 640 640 640> 116 130<0 499 499 499 0 699>
LayerCount: 2
Fore
SplineSet
40 439 m 257
 40 640 l 257xa8
 116 699 l 257
 246 699 l 257
 246 0 l 257
 116 0 l 257
 116 499 l 257xa4
 40 439 l 257
EndSplineSet
EndChar

StartChar: uni00BD
Encoding: 124 189 165
GlifName: onehalf
Width: 581
VWidth: 0
GlyphClass: 2
Flags: HW
HStem: -1 66<346 551 346 551> 288 66<422 424 422 424 448 449 424 448> 682 20<114 182 182 182 458 534 534 534>
VStem: 76 106<567 671 671 671> 114 68<349 597 597 597 349 702> 490 64<235.5 251 224 263>
LayerCount: 2
Fore
SplineSet
26 -2 m 257
 458 702 l 257
 534 702 l 257
 109 -2 l 257
 26 -2 l 257
76 567 m 257
 76 671 l 257xf4
 114 702 l 257
 182 702 l 257
 182 349 l 257
 114 349 l 257
 114 597 l 257xec
 76 567 l 257
337 261 m 257
 338 263 l 257
 343 306 374 347 422 353 c 257
 424 354 l 257
 424 290 l 257
 424 288 l 257
 422 288 l 258xe4
 420 287 400 278 400 250 c 258
 400 248 l 257
 337 261 l 257
346 -1 m 257
 346 65 l 257
 551 65 l 257
 551 -1 l 257
 346 -1 l 257
348 92 m 257
 349 94 l 258
 379 156 429 184 444 196 c 256
 467 215 490 220 490 251 c 256
 490 275 476 287 449 288 c 258
 448 288 l 257
 448 354 l 257
 453 354 l 258
 531 354 553 290 554 251 c 256
 554 197 529 180 499 159 c 256
 464 134 445 119 428 93 c 257
 427 92 l 257
 348 92 l 257
EndSplineSet
EndChar

StartChar: uni00BC
Encoding: 123 188 166
GlifName: onequarter
Width: 560
VWidth: 0
GlyphClass: 2
Flags: HW
HStem: -1 21<393 461 393 393> -1 21<393 461 393 393> 71 66<346 368 270 270 461 488> 682 20<114 181 181 181 458 534 534 534>
VStem: 75 106<567 671 671 671> 113 68<349 597 597 597> 270 98<71 137 71 137> 393 95<71 137 71 352> 393 68<-1 71 -1 137 137 352>
LayerCount: 2
Fore
SplineSet
26 -2 m 257
 458 702 l 257
 534 702 l 257
 109 -2 l 257
 26 -2 l 257
75 567 m 257
 75 671 l 257x3a
 114 702 l 257
 181 702 l 257
 181 349 l 257
 113 349 l 257
 113 597 l 257x36
 75 567 l 257
270 71 m 257
 270 137 l 257
 368 305 l 257
 368 175 l 257
 346 137 l 257
 368 137 l 257
 368 71 l 257
 270 71 l 257
393 -1 m 257xb280
 393 352 l 257xb3
 461 352 l 257
 461 137 l 257xb280
 488 137 l 257xb3
 488 71 l 257xb3
 461 71 l 257
 461 -1 l 257
 393 -1 l 257xb280
EndSplineSet
EndChar

StartChar: uni00AA
Encoding: 105 170 167
GlifName: ordfeminine
Width: 227
VWidth: 0
GlyphClass: 2
Flags: HW
LayerCount: 2
Fore
SplineSet
26 362 m 257
 26 430 l 257
 201 430 l 257
 201 362 l 257
 26 362 l 257
28 520 m 258
 28 551 l 258
 28 566 31 575 50 586 c 256
 70 598 134 610 134 626 c 258
 134 631 l 258
 134 641 133 648 119 649 c 258
 116 650 l 257
 116 701 l 257
 119 701 l 258
 165 701 188 659 188 639 c 258
 188 535 l 258
 188 533 189 523 197 523 c 258
 200 523 l 257
 200 471 l 257
 197 471 l 258
 181 471 168 476 159 483 c 257
 148 475 136 471 120 471 c 258
 117 471 l 257
 117 523 l 257
 120 523 l 258
 132 523 134 536 134 537 c 258
 134 569 l 257
 115 559 85 554 79 551 c 256
 77 550 75 547 75 543 c 258
 75 537 l 258
 75 529 78 523 89 523 c 258
 99 523 l 257
 99 471 l 257
 97 471 l 258
 54 471 28 494 28 520 c 258
31 642 m 257
 31 644 l 258
 31 676 65 701 96 701 c 258
 99 701 l 257
 99 649 l 257
 96 649 l 258
 87 648 80 643 80 627 c 258
 80 623 l 257
 31 642 l 257
EndSplineSet
EndChar

StartChar: uni00BA
Encoding: 121 186 168
GlifName: ordmasculine
Width: 230
VWidth: 0
GlyphClass: 2
Flags: HW
HStem: 361 71<26 204 26 204> 470 55<78.5 108 103 108 103 127 103 123> 645 55<96.5 108 103 108 103 123 123 127>
VStem: 32 56<533.5 534 534 635> 141 55<533 635 635 635.5>
LayerCount: 2
Fore
SplineSet
26 361 m 257
 26 432 l 257
 204 432 l 257
 204 361 l 257
 26 361 l 257
32 533 m 258
 32 637 l 258
 32 658 55 700 103 700 c 258
 108 700 l 257
 108 645 l 257
 103 645 l 258
 90 645 88 636 88 635 c 258
 88 534 l 258
 88 533 91 525 103 525 c 258
 108 525 l 257
 108 470 l 257
 103 470 l 258
 54 470 32 513 32 533 c 258
123 470 m 257
 123 523 l 257
 127 523 l 258
 139 523 141 532 141 533 c 258
 141 635 l 258
 141 636 139 645 127 645 c 258
 123 645 l 257
 123 700 l 257
 127 700 l 258
 173 700 196 658 196 637 c 258
 196 533 l 258
 196 513 174 470 127 470 c 258
 123 470 l 257
EndSplineSet
EndChar

StartChar: uni00F8
Encoding: 183 248 169
GlifName: oslash
Width: 498
VWidth: 0
GlyphClass: 2
Flags: HW
HStem: -1 118<195 231 225 231 272 278 225 272> 398 118<208.5 231 225 231 225 272 272 278>
VStem: 67 120<253 363 253 376 253 398.5> 314 117<152 261 261 261>
LayerCount: 2
Fore
SplineSet
0 82 m 257
 67 143 l 257
 67 376 l 258
 67 421 118 516 225 516 c 258
 231 516 l 257
 231 398 l 257
 225 398 l 258
 192 398 187 373 187 363 c 258
 187 253 l 257
 314 370 l 257
 312 384 304 398 278 398 c 258
 272 398 l 257
 272 516 l 257
 278 516 l 258
 336 516 378 486 402 451 c 257
 445 490 l 257
 498 430 l 257
 431 369 l 257
 431 141 l 258
 431 96 382 -1 278 -1 c 258
 272 -1 l 257
 272 117 l 257
 278 117 l 258
 309 118 314 141 314 152 c 258
 314 261 l 257
 188 145 l 257
 190 130 200 117 225 117 c 258
 231 117 l 257
 231 -1 l 257
 225 -1 l 258
 165 -1 123 29 98 63 c 257
 53 22 l 257
 0 82 l 257
EndSplineSet
EndChar

StartChar: uni0070
Encoding: 80 112 171
GlifName: p
Width: 481
VWidth: 9
GlyphClass: 2
Flags: HW
HStem: -191.11 21G<41.9992 179.5> 9.08984 129.8<232.299 307.639> 446.89 129.801<224.599 311.174>
VStem: 41.9992 137.5<-191.11 576.69> 312.599 132<144.744 439.653>
LayerCount: 2
Fore
SplineSet
42 -191.110351562 m 257
 42 576.690429688 l 257
 179.5 576.690429688 l 257
 179.5 -191.110351562 l 257
 42 -191.110351562 l 257
224.599609375 446.889648438 m 257
 224.599609375 576.690429688 l 257
 259.799804688 576.690429688 l 258
 377.5 576.690429688 444.599609375 483.190429688 444.599609375 421.58984375 c 258
 444.599609375 161.990234375 l 257
 444.599609375 103.690429688 388.5 9.08984375 264.200195312 9.08984375 c 258
 232.299804688 9.08984375 l 257
 232.299804688 138.889648438 l 257
 266.399414062 138.889648438 l 257
 307.099609375 139.990234375 312.599609375 156.490234375 312.599609375 166.389648438 c 258
 312.599609375 418.290039062 l 257
 312.599609375 432.58984375 292.799804688 446.889648438 259.799804688 446.889648438 c 258
 224.599609375 446.889648438 l 257
EndSplineSet
EndChar

StartChar: uni00B6
Encoding: 117 182 172
GlifName: paragraph
Width: 481
VWidth: 0
GlyphClass: 2
Flags: HW
LayerCount: 2
Fore
SplineSet
35 517 m 256
 35 617 102 705 204 705 c 256
 232 705 259 705 287 705 c 257
 287 -5 l 257
 204 -5 l 257
 204 329 l 257
 100 329 35 403 35 517 c 256
344 -5 m 257
 344 705 l 257
 427 705 l 257
 427 -5 l 257
 344 -5 l 257
EndSplineSet
EndChar

StartChar: uni0028
Encoding: 8 40 173
GlifName: parenleft
Width: 223
VWidth: 0
GlyphClass: 2
Flags: HW
LayerCount: 2
Fore
SplineSet
40 189 m 261
 40 510 l 261
 40 652 103 696 202 735 c 261
 203 648 l 261
 164 625 144 593 143 521 c 262
 143 208 l 262
 143 206 143 204 143 202 c 260
 143 104 168 73 203 51 c 261
 203 -37 l 261
 61 22 40 93 40 189 c 261
EndSplineSet
EndChar

StartChar: uni0029
Encoding: 9 41 174
GlifName: parenright
Width: 223
VWidth: 0
GlyphClass: 2
Flags: HW
VStem: 135.195 119<202 208 208 510>
LayerCount: 2
Fore
SplineSet
20 -37 m 261
 162 22 183 93 183 189 c 261
 183 510 l 261
 183 652 120 696 21 735 c 261
 20 648 l 261
 59 625 79 593 80 521 c 262
 80 208 l 262
 80 206 80 204 80 202 c 260
 80 104 55 73 20 51 c 261
 20 -37 l 261
EndSplineSet
EndChar

StartChar: uni002E
Encoding: 14 46 175
GlifName: period
Width: 180
VWidth: 0
GlyphClass: 2
Flags: HW
LayerCount: 2
Fore
SplineSet
15 53 m 256
 15 95 48 129 90 129 c 256
 132 129 165 95 165 53 c 256
 165 11 132 -22 90 -22 c 256
 48 -22 15 11 15 53 c 256
EndSplineSet
EndChar

StartChar: uni2030
Encoding: 303 8240 177
GlifName: perthousand
Width: 897
VWidth: 0
GlyphClass: 2
Flags: HW
HStem: 0 65<487 489 488 489 488 489 488 517 517 518 488 519 746 747 775 776> 287 65<488 490 488 490 516 518 488 516 746 748 774 776> 680 20<497 570 570 570>
VStem: 26 68<499 522 522 551 499 592> 178 68<522 551 551 567> 393 68<148 171 171 201 148 242> 546 68<171 201 201 217> 651 68<148 171 171 201 148 242> 804 68<171 201 201 217>
LayerCount: 2
Fore
SplineSet
26 528 m 256
 26 656 75 699 121 702 c 257
 122 703 l 257
 122 637 l 257
 121 637 l 257
 96 631 94 583 94 551 c 258
 94 522 l 258
 94 476 95 421 121 415 c 257
 122 415 l 257
 122 350 l 257
 120 351 l 257
 86 353 26 378 26 528 c 256
67 0 m 257
 497 700 l 257
 570 700 l 257
 147 0 l 257
 67 0 l 257
150 350 m 257
 150 415 l 257
 151 415 l 257
 177 421 178 476 178 522 c 258
 178 551 l 258
 178 583 176 631 151 637 c 257
 150 637 l 257
 150 703 l 257
 151 702 l 257
 197 699 246 657 246 528 c 256
 246 378 186 353 152 351 c 257
 150 350 l 257
393 178 m 256
 393 306 442 349 488 352 c 258
 490 352 l 257
 490 287 l 257
 488 287 l 257
 463 281 461 233 461 201 c 258
 461 171 l 258
 461 125 462 71 488 65 c 257
 489 65 l 257
 489 0 l 257
 487 0 l 258
 453 2 393 28 393 178 c 256
516 287 m 257
 516 352 l 257
 518 352 l 258
 564 349 614 307 614 178 c 256
 614 28 553 2 519 0 c 258
 517 0 l 257
 517 65 l 257
 518 65 l 257
 544 71 546 125 546 171 c 258
 546 201 l 258
 546 233 543 281 518 287 c 257
 516 287 l 257
651 178 m 256
 651 306 700 349 746 352 c 258
 748 352 l 257
 748 287 l 257
 746 287 l 257
 721 281 719 233 719 201 c 258
 719 171 l 258
 719 125 720 71 746 65 c 257
 747 65 l 257
 747 0 l 257
 745 0 l 258
 711 2 651 28 651 178 c 256
774 287 m 257
 774 352 l 257
 776 352 l 258
 822 349 872 307 872 178 c 256
 872 28 811 2 777 0 c 258
 775 0 l 257
 775 65 l 257
 776 65 l 257
 802 71 804 125 804 171 c 258
 804 201 l 258
 804 233 801 281 776 287 c 257
 774 287 l 257
EndSplineSet
EndChar

StartChar: uni002B
Encoding: 11 43 178
GlifName: plus
Width: 405
VWidth: 0
GlyphClass: 2
Flags: HW
LayerCount: 2
Fore
SplineSet
15 230 m 257
 15 357 l 257
 138 357 l 257
 138 498 l 257
 265 498 l 257
 265 357 l 257
 390 357 l 257
 390 230 l 257
 265 230 l 257
 265 87 l 257
 138 87 l 257
 138 230 l 257
 15 230 l 257
EndSplineSet
EndChar

StartChar: uni00B1
Encoding: 112 177 179
GlifName: plusminus
Width: 427
VWidth: 0
GlyphClass: 2
Flags: HW
HStem: 40 127<26 402 26 402> 391 127
VStem: 149 127
LayerCount: 2
Fore
SplineSet
26 40 m 257
 26 167 l 257
 402 167 l 257
 402 40 l 257
 26 40 l 257
EndSplineSet
Refer: 178 43 S 1 0 0 1 10 161 2
EndChar

StartChar: uni0071
Encoding: 81 113 180
GlifName: q
Width: 476
VWidth: 9
GlyphClass: 2
Flags: HW
HStem: -191.11 21G<297.571 434> 9.08984 129.8<175.006 250.3> 446.89 129.801<174.32 244.8>
VStem: 38 132<143.733 442.466> 297.6 136.4<-191.11 576.69>
LayerCount: 2
Fore
SplineSet
38 161.990234375 m 257
 38 421.58984375 l 258
 38 471.08984375 93 576.690429688 210.700195312 576.690429688 c 258
 244.799804688 576.690429688 l 257
 244.799804688 446.889648438 l 257
 210.700195312 446.889648438 l 258
 175.5 446.889648438 170 421.58984375 170 419.389648438 c 257
 170 166.389648438 l 258
 170 164.190429688 174.400390625 139.990234375 216.200195312 138.889648438 c 258
 250.299804688 138.889648438 l 257
 250.299804688 9.08984375 l 257
 218.400390625 9.08984375 l 258
 94.099609375 9.08984375 39.099609375 111.389648438 38 161.990234375 c 257
296.5 576.690429688 m 257
 432.900390625 576.690429688 l 257
 434 -191.110351562 l 257
 297.599609375 -191.110351562 l 257
 296.5 576.690429688 l 257
EndSplineSet
EndChar

StartChar: uni003F
Encoding: 31 63 181
GlifName: question
Width: 460
VWidth: 0
GlyphClass: 2
Flags: HW
HStem: -22 151<176 218> 166 220<134 263 134 134> 575 128<188.5 233.5>
VStem: 122 151<32 74> 134 129<166 276 166 386 166 386> 302 128<446.5 482.5 482.5 491 385 519>
LayerCount: 2
Fore
SplineSet
30 611 m 257
 60 649 110 703 218 703 c 256
 346 703 426 620 430 491 c 257
 430 294.686523438 263 276 263 276 c 261
 263 166 l 257
 134 166 l 257
 134 386 l 257xec
 251 388 302 400 302 493 c 256
 302 545 257 575 210 575 c 256
 167 575 133 554 112 526 c 257
 30 611 l 257
122 53 m 256xf4
 122 95 155 129 197 129 c 256
 239 129 273 95 273 53 c 256
 273 11 239 -22 197 -22 c 256
 155 -22 122 11 122 53 c 256xf4
EndSplineSet
EndChar

StartChar: uni00BF
Encoding: 126 191 182
GlifName: questiondown
Width: 445
VWidth: 0
GlyphClass: 2
Flags: HW
HStem: -14 128<178.5 223.5 178.5 273.5> 303 220<124 253> 560 151<166 208>
VStem: 112 151<615 657> 124 129<413 523 413 523 413 523> 292 128<170 242.5>
LayerCount: 2
Fore
SplineSet
20 78 m 257
 102 163 l 257xec
 123 135 157 114 200 114 c 256
 247 114 292 144 292 196 c 256
 292 289 241 301 124 303 c 257
 124 523 l 257
 253 523 l 257
 253 413 l 257
 253 413 420 400 420 208 c 256
 420 72 339 -14 208 -14 c 256
 100 -14 50 40 20 78 c 257
112 636 m 256xf4
 112 678 145 711 187 711 c 256
 229 711 263 678 263 636 c 256
 263 594 229 560 187 560 c 256
 145 560 112 594 112 636 c 256xf4
EndSplineSet
EndChar

StartChar: uni0022
Encoding: 2 34 183
GlifName: quotedbl
Width: 392
VWidth: 0
GlyphClass: 2
Flags: HW
LayerCount: 2
Fore
SplineSet
43 465 m 257
 43 736 l 257
 170 736 l 257
 170 465 l 257
 43 465 l 257
223 465 m 257
 223 736 l 257
 350 736 l 257
 350 465 l 257
 223 465 l 257
EndSplineSet
EndChar

StartChar: quotedbl.alt
Encoding: 65537 -1 184
GlifName: quotedbl.alt
Width: 359
VWidth: 0
GlyphClass: 2
Flags: HW
HStem: 476 224<26 153 26 153 26 206 206 333>
VStem: 26 127<476 700> 206 127<476 700>
LayerCount: 2
Fore
SplineSet
26 476 m 257
 26 700 l 257
 153 700 l 257
 153 476 l 257
 26 476 l 257
206 476 m 257
 206 700 l 257
 333 700 l 257
 333 476 l 257
 206 476 l 257
EndSplineSet
EndChar

StartChar: uni0027
Encoding: 7 39 191
GlifName: quotesingle
Width: 212
VWidth: 0
GlyphClass: 2
Flags: HW
LayerCount: 2
Fore
SplineSet
43 465 m 257
 43 736 l 257
 170 736 l 257
 170 465 l 257
 43 465 l 257
EndSplineSet
EndChar

StartChar: uni0072
Encoding: 82 114 192
GlifName: r
Width: 361
VWidth: 0
GlyphClass: 2
Flags: HW
HStem: -0.00976562 21G<41.8992 178.299> 434.49 133.1<248.693 320.199>
VStem: 41.8992 136.399<-0.00976562 364.418 499.39 567.59>
LayerCount: 2
Fore
SplineSet
41.900390625 -0.009765625 m 257
 41.900390625 567.58984375 l 257
 178.299804688 567.58984375 l 257
 178.299804688 499.389648438 l 257
 201.400390625 529.08984375 254.200195312 567.58984375 314.700195312 567.58984375 c 258
 351 567.58984375 l 257
 320.200195312 434.490234375 l 257
 246.5 433.389648438 178.299804688 364.08984375 178.299804688 298.08984375 c 258
 178.299804688 -0.009765625 l 257
 41.900390625 -0.009765625 l 257
EndSplineSet
EndChar

StartChar: uni00AE
Encoding: 109 174 193
GlifName: registered
Width: 404
VWidth: 0
GlyphClass: 2
Flags: HW
HStem: 354 42<191 192 191 211> 511 36<206 210 210 216> 591 37<206 210 206 227> 662 41<193 195 193 195 193 240.5>
VStem: 30 40<523 567.5 526 567.5 526 587> 151 39<430 627 430 627> 234 36<562.5 575> 334 40<525 527 526.5 528 473 567.5>
LayerCount: 2
Fore
SplineSet
30 523 m 256
 30 524 30 524 30 525 c 256
 30 649 133 703 193 703 c 256
 194 703 194 703 195 703 c 257
 195 662 l 257
 136 662 70 609 70 526 c 256
 71 457 126 399 191 396 c 257
 192 354 l 257
 111 355 30 432 30 523 c 256
151 430 m 257
 151 627 l 257
 190 627 l 257
 190 430 l 257
 151 430 l 257
206 511 m 257
 206 547 l 257
 210 547 l 258
 227 547 234 557 234 568 c 256
 234 582 224 591 210 591 c 258
 206 591 l 257
 206 628 l 257
 248 628 270 604 270 570 c 256
 270 551 264 538 251 530 c 257
 261 522 269 506 270 492 c 258
 270 431 l 257
 235 431 l 257
 235 481 l 258
 235 504 226 511 206 511 c 257
211 354 m 257
 211 396 l 257
 276 399 332 456 334 525 c 256
 334 526 334 526 334 527 c 256
 334 608 270 662 211 662 c 257
 211 703 l 257
 277 702 374 641 374 528 c 256
 374 526 374 525 374 523 c 256
 374 423 288 357 211 354 c 257
EndSplineSet
EndChar

StartChar: uni02DA
Encoding: 286 730 194
GlifName: ring
Width: 244
VWidth: 0
GlyphClass: 2
Flags: W
HStem: 430 64<113 131 113 148.5> 558 64<113 131>
VStem: 26 64<517 535 517 552.5> 154 64<517 535>
LayerCount: 2
Fore
SplineSet
26 526 m 256
 26 579 69 622 122 622 c 256
 175 622 218 579 218 526 c 256
 218 473 175 430 122 430 c 256
 69 430 26 473 26 526 c 256
90 526 m 256
 90 508 104 494 122 494 c 256
 140 494 154 508 154 526 c 256
 154 544 140 558 122 558 c 256
 104 558 90 544 90 526 c 256
EndSplineSet
Validated: 1
EndChar

StartChar: uni0073
Encoding: 83 115 195
GlifName: s
Width: 454
VWidth: 0
GlyphClass: 2
Flags: HW
HStem: 444.59 124.3<153.248 197.5 243.7 288.737>
VStem: 25.9002 123.2<369.095 439.253> 305.3 128.7<131.111 197.858>
LayerCount: 2
Fore
SplineSet
20.400390625 149.790039062 m 257
 143.600585938 172.889648438 l 257
 143.600585938 169.58984375 l 258
 145.799804688 148.690429688 170 124.490234375 196.400390625 122.290039062 c 256
 199.700195312 121.190429688 l 257
 199.700195312 -5.3095703125 l 257
 196.400390625 -5.3095703125 l 258
 93 -5.3095703125 24.7998046875 77.1904296875 21.5 147.58984375 c 256
 20.400390625 149.790039062 l 257
25.900390625 408.290039062 m 256
 25.900390625 520.490234375 134.799804688 568.889648438 194.200195312 568.889648438 c 258
 197.5 568.889648438 l 257
 197.5 446.790039062 l 257
 195.299804688 446.790039062 l 256
 151.299804688 442.389648438 149.100585938 414.889648438 149.100585938 398.389648438 c 256
 149.100585938 378.58984375 165.600585938 355.490234375 320.700195312 325.790039062 c 256
 377.900390625 314.790039062 434 267.490234375 434 176.190429688 c 256
 434 62.8896484375 350.400390625 -5.3095703125 248.100585938 -5.3095703125 c 258
 244.799804688 -5.3095703125 l 257
 244.799804688 120.08984375 l 257
 248.100585938 120.08984375 l 258
 264.600585938 121.190429688 305.299804688 132.190429688 305.299804688 168.490234375 c 256
 305.299804688 217.990234375 182.100585938 226.790039062 119.400390625 255.389648438 c 256
 65.5 281.790039062 25.900390625 315.889648438 25.900390625 408.290039062 c 256
242.600585938 444.58984375 m 257
 243.700195312 568.889648438 l 257
 247 568.889648438 l 258
 350.400390625 568.889648438 424.100585938 484.190429688 424.100585938 413.790039062 c 258
 424.100585938 411.58984375 l 257
 300.900390625 390.690429688 l 257
 300.900390625 393.990234375 l 256
 296.5 439.08984375 254.700195312 444.58984375 245.900390625 444.58984375 c 258
 242.600585938 444.58984375 l 257
EndSplineSet
EndChar

StartChar: uni00A7
Encoding: 102 167 197
GlifName: section
Width: 603
VWidth: 0
GlyphClass: 2
Flags: HW
HStem: -136 132<198 302 302 310 198 302> 627 132<293 301 301 405>
VStem: 54 141<335.5 368.5 335.5 382> 116 131<565.5 591 565.5 640.5> 356 131<32 57.5> 408 141<254.5 288>
LayerCount: 2
Fore
SplineSet
54 351 m 256xe0
 54 413 82 465 126 499 c 257
 119 519 116 543 116 571 c 256xd0
 116 710 225 759 293 759 c 258
 405 759 l 257
 405 627 l 257
 301 627 l 258
 268 627 247 606 247 576 c 256xd0
 247 555 258 540 274 527 c 257
 274 372 l 257
 261 377 249 381 239 386 c 256
 230 391 221 395 212 400 c 257
 202 392 195 380 195 357 c 256
 195 314 232 290 274 272 c 257
 274 125 l 257
 243 138 209 150 182 166 c 256
 121 202 54 249 54 351 c 256xe0
198 -4 m 257
 302 -4 l 258
 335 -4 356 17 356 47 c 256
 356 68 345 84 328 97 c 257
 328 252 l 257
 341 247 353 242 364 237 c 256
 373 232 382 228 391 223 c 257xc8
 401 231 408 243 408 266 c 256
 408 310 371 333 328 351 c 257
 328 498 l 257
 359 485 393 473 421 457 c 256
 482 421 549 374 549 272 c 256xc4
 549 210 521 158 477 124 c 257
 484 104 487 80 487 52 c 256
 487 -87 378 -136 310 -136 c 258
 198 -136 l 257
 198 -4 l 257
EndSplineSet
EndChar

StartChar: uni003B
Encoding: 27 59 198
GlifName: semicolon
Width: 291
VWidth: 0
GlyphClass: 2
Flags: HW
HStem: -23 152<87 177 50 214> 285 151<145 187>
VStem: 91 150<339 381>
LayerCount: 2
Fore
SplineSet
50 -23 m 257
 87 129 l 257
 214 129 l 257
 177 -23 l 257
 50 -23 l 257
91 360 m 256
 91 402 124 436 166 436 c 256
 208 436 241 402 241 360 c 256
 241 318 208 285 166 285 c 256
 124 285 91 318 91 360 c 256
EndSplineSet
EndChar

StartChar: uni0037
Encoding: 23 55 199
GlifName: seven
Width: 435
VWidth: 0
GlyphClass: 2
Flags: HW
HStem: 0 21<136 273 136 136> 0 21<136 273 136 136> 510 188<236 371 236 236> 572 126<20 260 20 409>
LayerCount: 2
Fore
SplineSet
20 572 m 257
 20 698 l 257x10
 409 698 l 257x10
 409 573 l 257
 397 562 378 529 371 510 c 257
 236 510 l 257x20
 260 572 l 257
 20 572 l 257
136 0 m 257x80
 153 158 181 295 223 450 c 257
 356 450 l 257
 317 300 289 154 273 0 c 257
 136 0 l 257x80
EndSplineSet
EndChar

StartChar: uni0036
Encoding: 22 54 200
GlifName: six
Width: 510
VWidth: 0
GlyphClass: 2
Flags: HW
HStem: -1 125<149.5 237 237 291> 307 118<236 237 236 236> 573 125<291 302 291 293>
VStem: 35 124<399 416.5> 365 115<183.5 249>
LayerCount: 2
Fore
SplineSet
35 358 m 256
 35 475 64 675 237 697 c 257
 237 572 l 257
 174 565 159 448 159 399 c 257
 178 414 207 425 237 425 c 257
 237 307 l 257
 236 307 l 256
 216 302 169 286 169 209 c 256
 169 170 199 128 237 124 c 257
 237 -1 l 257
 62 -1 35 186 35 358 c 256
291 -1 m 257
 291 123 l 257
 326 127 365 159 365 208 c 256
 365 290 311 304 292 309 c 257
 291 425 l 257
 415 425 480 327 480 209 c 256
 480 84 392 0 291 -1 c 257
291 573 m 257
 291 698 l 257
 369 698 424 659 459 600 c 257
 364 537 l 257
 348 559 330 573 302 573 c 256
 298 573 295 573 291 573 c 257
EndSplineSet
EndChar

StartChar: uni002F
Encoding: 15 47 201
GlifName: slash
Width: 401
VWidth: 0
GlyphClass: 2
Flags: W
LayerCount: 2
Fore
SplineSet
50 -23 m 257
 225 716 l 257
 351 716 l 257
 177 -23 l 257
 50 -23 l 257
EndSplineSet
Validated: 1
EndChar

StartChar: uni00A3
Encoding: 98 163 203
GlifName: sterling
Width: 460
VWidth: 0
GlyphClass: 2
Flags: HW
HStem: 0 108<208 432 208 432> 289 107<209 348 209 348 208 348> 584 121<261 263 263 277 261 289>
VStem: 76 132<108 288 288 288 108 514>
LayerCount: 2
Fore
SplineSet
20 288 m 257
 20 395 l 257
 76 395 l 257
 76 514 l 258
 76 617 131 705 261 705 c 256
 262 705 262 705 263 705 c 256
 291 705 315 700 336 691 c 256
 394 668 429 618 440 570 c 257
 341 520 l 257
 331 551 311 584 267 584 c 256
 235 584 209 568 209 517 c 258
 209 396 l 257
 348 396 l 257
 348 289 l 257
 208 289 l 257
 208 108 l 257
 432 108 l 257
 432 0 l 257
 76 0 l 257
 76 288 l 257
 20 288 l 257
EndSplineSet
EndChar

StartChar: uni0074
Encoding: 84 116 204
GlifName: t
Width: 314
VWidth: -9
GlyphClass: 2
Flags: HW
HStem: 428.59 129.8<14.8008 84.1006 218.301 284.301>
VStem: 84.1006 134.2<130.83 428.59 558.39 760.79>
LayerCount: 2
Fore
SplineSet
14.80078125 428.58984375 m 257
 14.80078125 558.389648438 l 257
 84.1005859375 558.389648438 l 257
 84.1005859375 760.790039062 l 257
 218.30078125 760.790039062 l 257
 218.30078125 558.389648438 l 257
 284.30078125 558.389648438 l 257
 284.30078125 428.58984375 l 257
 218.30078125 428.58984375 l 257
 218.30078125 165.690429688 l 258
 218.30078125 150.290039062 223.80078125 129.389648438 254.600585938 128.290039062 c 258
 284.30078125 128.290039062 l 257
 314 -9.2099609375 l 257
 253.5 -9.2099609375 l 258
 119.30078125 -8.1103515625 84.1005859375 63.3896484375 84.1005859375 175.58984375 c 258
 84.1005859375 428.58984375 l 257
 14.80078125 428.58984375 l 257
EndSplineSet
EndChar

StartChar: uni00FE
Encoding: 189 254 205
GlifName: thorn
Width: 422
VWidth: 0
GlyphClass: 2
Flags: HW
HStem: 0 118<203 232 203 234> 398 118<196 228 196 228> 680 20<30 155 155 155>
VStem: 30 125<-182 700 -182 700> 276 120<143 372 372 375>
LayerCount: 2
Fore
SplineSet
30 -182 m 257
 30 700 l 257
 155 700 l 257
 155 -182 l 257
 30 -182 l 257
196 398 m 257
 196 516 l 257
 228 516 l 258
 335 516 396 431 396 375 c 258
 396 139 l 258
 396 86 345 0 232 0 c 258
 203 0 l 257
 203 118 l 257
 234 118 l 258
 271 119 276 134 276 143 c 258
 276 372 l 258
 276 385 258 398 228 398 c 258
 196 398 l 257
EndSplineSet
EndChar

StartChar: uni0033
Encoding: 19 51 206
GlifName: three
Width: 484
VWidth: 0
GlyphClass: 2
Flags: HW
HStem: 0 122<255 257 255 255.5> 286 124<188 247> 574 124<156 256 156 252.5>
VStem: 327 131<181 231>
LayerCount: 2
Fore
SplineSet
26 97 m 257
 132 160 l 257
 146 139 166 127 195 125 c 257
 195 -1 l 257
 117 -1 60 30 26 97 c 257
26 600 m 257
 59 656 117 698 195 698 c 257
 195 572 l 257
 166 570 146 558 132 537 c 257
 26 600 l 257
188 286 m 257
 188 410 l 257
 308 410 327 439 327 499 c 256
 327 553 286 574 256 574 c 256
 255 574 253 574 252 574 c 257
 252 698 l 257
 386 695 453 582 453 508 c 256
 453 411 422 366 391 350 c 257
 419 331 458 284 458 199 c 256
 458 75 337 0 257 0 c 256
 256 0 256 0 255 0 c 257
 254 122 l 257
 297 122 327 161 327 201 c 256
 327 261 306 286 188 286 c 257
EndSplineSet
EndChar

StartChar: uni00BE
Encoding: 125 190 207
GlifName: threequarters
Width: 584
VWidth: 0
GlyphClass: 2
Flags: HW
HStem: -1 21<417 485 417 417> -1 21<417 485 417 417> 71 66<370 392 294 294 485 512> 348 66<93.5 114 113 114 113 141 113 144> 492 65<108 109 109 137.5> 636 64<94 141 94 143 94 140>
VStem: 177 68<440.5 464.5> 294 98<71 137 71 137> 417 95<71 137 71 352> 417 68<-1 71 -1 137 137 352>
LayerCount: 2
Fore
SplineSet
26 399 m 257
 82 432 l 257
 83 431 l 258x3f
 90 421 99 415 113 414 c 258
 114 414 l 257
 114 348 l 257
 113 348 l 258
 74 348 44 364 27 398 c 257
 26 399 l 257
26 649 m 257
 27 651 l 258
 44 679 74 700 114 700 c 257
 114 635 l 257
 113 635 l 258
 99 634 90 628 83 618 c 258
 82 616 l 257
 26 649 l 257
50 -2 m 257
 482 702 l 257
 558 702 l 257
 133 -2 l 257
 50 -2 l 257
108 492 m 257
 108 557 l 257
 109 557 l 258
 169 557 177 571 177 600 c 256
 177 626 157 636 143 636 c 258
 140 636 l 257
 140 701 l 257
 141 700 l 257
 209 698 243 642 243 604 c 256
 243 557 229 534 214 525 c 257
 229 514 245 491 245 450 c 256
 245 387 185 348 144 348 c 258
 141 348 l 257
 141 412 l 257
 142 412 l 258
 163 412 177 431 177 450 c 256
 177 479 167 492 108 492 c 257
294 71 m 257
 294 137 l 257
 392 305 l 257
 392 175 l 257
 370 137 l 257
 392 137 l 257
 392 71 l 257
 294 71 l 257
417 -1 m 257xbf40
 417 352 l 257xbf80
 485 352 l 257
 485 137 l 257xbf40
 512 137 l 257xbf80
 512 71 l 257xbf80
 485 71 l 257
 485 -1 l 257
 417 -1 l 257xbf40
EndSplineSet
EndChar

StartChar: uni02DC
Encoding: 288 732 208
GlifName: tilde
Width: 333
VWidth: 0
GlyphClass: 2
Flags: HW
HStem: 86 101<201.5 234.5> 126 102<86.5 116>
VStem: 26 281<114 114 114 206 206 206>
LayerCount: 2
Fore
SplineSet
26 104 m 257
 26 206 l 257
 54 222 77 228 96 228 c 256x60
 147 228 176 187 227 187 c 256
 249 187 274 195 307 215 c 257
 307 114 l 257xa0
 273 93 246 86 223 86 c 256xa0
 170 86 140 126 92 126 c 256
 74 126 52 120 26 104 c 257
EndSplineSet
EndChar

StartChar: uni0032
Encoding: 18 50 209
GlifName: two
Width: 485
VWidth: 0
GlyphClass: 2
Flags: HW
HStem: 0 127<49 453 49 453> 574 126<251 258>
VStem: 336 123<495 497 496.5 497 442 522>
LayerCount: 2
Fore
SplineSet
30 520 m 257
 39 604 101 687 196 699 c 257
 196 573 l 258
 195 573 148 557 148 495 c 257
 30 520 l 257
49 0 m 257
 49 127 l 257
 453 127 l 257
 453 0 l 257
 49 0 l 257
51 179 m 257
 111 302 211 359 241 384 c 256
 284.450195312 421.387695312 336 433.059570312 336 497 c 256
 336 547 306 572 251 574 c 257
 251 700 l 257
 409.495117188 700 457.940429688 578.608398438 459 497 c 260
 459 390.555664062 410.227539062 358.865234375 348 315 c 256
 277 265 237 232 203 179 c 257
 51 179 l 257
EndSplineSet
EndChar

StartChar: uni0075
Encoding: 85 117 210
GlifName: u
Width: 487
VWidth: 0
GlyphClass: 2
Flags: HW
HStem: -5.16016 133.101<178.174 220.2 266.4 308.426> 545.74 20G<37.5998 174 312.6 449>
VStem: 37.5998 136.4<132.101 565.74> 312.6 136.4<132.959 565.74>
LayerCount: 2
Fore
SplineSet
37.599609375 151.040039062 m 258
 37.599609375 565.740234375 l 257
 174 565.740234375 l 257
 174 156.540039062 l 257
 174 153.240234375 180.599609375 127.940429688 214.700195312 127.940429688 c 258
 220.200195312 127.940429688 l 257
 220.200195312 -5.16015625 l 257
 214.700195312 -5.16015625 l 258
 97 -5.16015625 37.599609375 98.240234375 37.599609375 151.040039062 c 258
266.399414062 -5.16015625 m 257
 266.399414062 127.940429688 l 257
 271.899414062 127.940429688 l 258
 306 127.940429688 312.599609375 154.33984375 312.599609375 156.540039062 c 257
 312.599609375 565.740234375 l 257
 449 565.740234375 l 257
 449 151.040039062 l 258
 449 101.540039062 389.599609375 -5.16015625 271.899414062 -5.16015625 c 258
 266.399414062 -5.16015625 l 257
EndSplineSet
EndChar

StartChar: uni005F
Encoding: 63 95 215
GlifName: underscore
Width: 510
VWidth: 0
GlyphClass: 2
Flags: HW
HStem: -205 107<30 480 30 480>
LayerCount: 2
Fore
SplineSet
30 -98 m 257
 480 -98 l 257
 480 -205 l 257
 30 -205 l 257
 30 -98 l 257
EndSplineSet
EndChar

StartChar: uni00B2
Encoding: 113 178 217
GlifName: uni00B_2
Width: 223
VWidth: 0
GlyphClass: 2
Flags: HW
LayerCount: 2
Fore
SplineSet
10 616 m 257
 10 619 l 257
 14 657 42 695 85 700 c 257
 89 700 l 257
 89 645 l 257
 89 638 l 257
 86 638 l 258
 82 636 69 629 69 608 c 258
 69 604 l 257
 10 616 l 257
18 389 m 257
 18 451 l 257
 200 451 l 257
 200 389 l 257
 18 389 l 257
18 469 m 257
 21 475 l 258
 47 529 91 553 103 563 c 256
 123 580 143 584 143 608 c 256
 143 629 132 638 109 639 c 258
 106 639 l 257
 106 700 l 257
 113 700 l 258
 182 700 203 643 203 609 c 256
 203 560 180 546 154 527 c 256
 123 505 107 493 93 471 c 258
 92 469 l 257
 18 469 l 257
EndSplineSet
EndChar

StartChar: uni00B3
Encoding: 114 179 218
GlifName: uni00B_3
Width: 232
VWidth: 0
GlyphClass: 2
Flags: HW
HStem: 392 60<74.5 117 92 117 114 117 114 117 117 119> 516 61<85 89 85 89> 640 61<92 95 92 95 113 116 92 118 92 113>
VStem: 145 64<475 495>
LayerCount: 2
Fore
SplineSet
14 439 m 257
 66 470 l 257
 68 467 l 258
 73 459 80 455 92 454 c 258
 95 453 l 257
 95 392 l 257
 92 392 l 258
 57 392 31 406 16 436 c 257
 14 439 l 257
14 654 m 257
 16 657 l 258
 31 682 57 701 92 701 c 258
 95 701 l 257
 95 640 l 257
 92 640 l 258
 80 639 73 634 68 626 c 258
 66 623 l 257
 14 654 l 257
85 516 m 257
 85 577 l 257
 89 577 l 258
 140 577 145 588 145 612 c 256
 145 633 129 640 118 640 c 258
 113 640 l 257
 113 701 l 257
 116 701 l 258
 176 700 207 650 207 616 c 256
 207 578 196 557 183 547 c 257
 195 537 209 516 209 482 c 256
 209 426 155 392 119 392 c 258
 114 392 l 257
 114 452 l 257
 117 452 l 258
 133 452 145 467 145 483 c 256
 145 507 139 516 89 516 c 258
 85 516 l 257
EndSplineSet
EndChar

StartChar: uni00B9
Encoding: 120 185 219
GlifName: uni00B_9
Width: 153
VWidth: 0
GlyphClass: 2
Flags: HW
HStem: 391 309<45 111 45 111 43 111>
VStem: 10 101<584 673 673 673> 43 68<391 610 610 610>
LayerCount: 2
Fore
SplineSet
10 584 m 257
 10 673 l 257xc0
 45 700 l 257
 111 700 l 257
 111 391 l 257
 43 391 l 257
 43 610 l 257xa0
 10 584 l 257
EndSplineSet
EndChar

StartChar: uni0076
Encoding: 86 118 220
GlifName: v
Width: 438
VWidth: 0
GlyphClass: 2
Flags: HW
HStem: -0.00976562 21G<175.264 264.467> 547.59 20G<7.60019 162.918 279.834 430>
LayerCount: 2
Fore
SplineSet
7.599609375 566.490234375 m 257
 156.099609375 567.58984375 l 257
 304.599609375 131.990234375 l 257
 257.299804688 -0.009765625 l 257
 181.399414062 -0.009765625 l 257
 7.599609375 566.490234375 l 257
245.200195312 433.389648438 m 257
 285.899414062 567.58984375 l 257
 430 566.490234375 l 257
 328.799804688 228.790039062 l 257
 315.599609375 228.790039062 l 257
 245.200195312 433.389648438 l 257
EndSplineSet
EndChar

StartChar: uni0077
Encoding: 87 119 221
GlifName: w
Width: 633
VWidth: 0
GlyphClass: 2
Flags: HW
HStem: -0.00976562 21G<169.197 249.799 375.764 458.466> 547.59 20G<7.89999 163.408 208.1 366.011 480.498 624.999>
LayerCount: 2
Fore
SplineSet
7.900390625 566.490234375 m 257
 157.5 567.58984375 l 257
 286.200195312 131.990234375 l 257
 243.299804688 -0.009765625 l 257
 175.100585938 -0.009765625 l 257
 7.900390625 566.490234375 l 257
208.100585938 566.490234375 m 257
 359.900390625 567.58984375 l 257
 493 131.990234375 l 257
 452.299804688 -0.009765625 l 257
 381.900390625 -0.009765625 l 257
 208.100585938 566.490234375 l 257
446.799804688 433.389648438 m 257
 486.400390625 567.58984375 l 257
 625 566.490234375 l 257
 517.200195312 228.790039062 l 257
 508.400390625 228.790039062 l 257
 446.799804688 433.389648438 l 257
EndSplineSet
EndChar

StartChar: uni0078
Encoding: 88 120 222
GlifName: x
Width: 416
VWidth: 0
GlyphClass: 2
Flags: HW
HStem: -0.00976562 21G<7.6 154.147 261.453 408> 547.59 18.9004G<12.0004 158.56 256.035 403.6>
LayerCount: 2
Fore
SplineSet
7.599609375 -0.009765625 m 257
 133 288.190429688 l 257
 12 567.58984375 l 257
 149.5 567.58984375 l 257
 207.799804688 438.889648438 l 257
 265 566.490234375 l 257
 403.599609375 566.490234375 l 257
 283.700195312 288.190429688 l 257
 408 -0.009765625 l 257
 270.5 -0.009765625 l 257
 207.799804688 138.58984375 l 257
 145.099609375 -0.009765625 l 257
 7.599609375 -0.009765625 l 257
EndSplineSet
EndChar

StartChar: uni0079
Encoding: 89 121 223
GlifName: y
Width: 429
VWidth: 9
GlyphClass: 2
Flags: HW
HStem: -191.06 21G<36.7 181.922> 555.64 20G<4.80059 154.964 274.67 425>
VStem: 211.6 1.09961<368.84 370.989>
LayerCount: 2
Fore
SplineSet
4.80078125 574.540039062 m 257
 148.900390625 575.639648438 l 257
 211.600585938 368.83984375 l 257
 211.600585938 369.940429688 212.700195312 369.940429688 212.700195312 371.040039062 c 257
 282 131.240234375 l 257
 175.30078125 -191.059570312 l 257
 36.7001953125 -191.059570312 l 257
 134.600585938 133.440429688 l 257
 4.80078125 574.540039062 l 257
239.100585938 441.440429688 m 257
 280.900390625 575.639648438 l 257
 425 574.540039062 l 257
 311.700195312 237.940429688 l 257
 298.5 237.940429688 l 257
 239.100585938 441.440429688 l 257
EndSplineSet
EndChar

StartChar: uni00A5
Encoding: 100 165 226
GlifName: yen
Width: 452
VWidth: 0
GlyphClass: 2
Flags: HW
HStem: 0 21<158 295 158 158> 0 21<158 295 158 158> 238 57<5 148 5 158 5 148> 351 58<5 117 5 132 5 117> 678 20<28 165 165 165 288 425 425 425>
VStem: 158 137<0 236 0 238 0 238>
LayerCount: 2
Fore
SplineSet
5 238 m 257
 5 295 l 257
 148 295 l 257
 132 351 l 257
 5 351 l 257
 5 409 l 257
 117 409 l 257
 28 698 l 257xbc
 165 698 l 257
 228 485 l 257
 288 698 l 257
 425 698 l 257
 337 408 l 257
 447 408 l 257
 447 350 l 257
 320 350 l 257
 306 295 l 257
 447 295 l 257
 447 236 l 257
 295 236 l 257
 295 0 l 257
 158 0 l 257
 158 238 l 257
 5 238 l 257
EndSplineSet
EndChar

StartChar: uni007A
Encoding: 90 122 227
GlifName: z
Width: 386
VWidth: 0
GlyphClass: 2
Flags: HW
HStem: 0.0898438 129.8<187.7 356> 433.49 132<30.4002 203.1>
VStem: 30.4002 325.6<0.0898438 127.69 440.09 565.49>
LayerCount: 2
Fore
SplineSet
30.400390625 0.08984375 m 257
 30.400390625 127.690429688 l 257
 203.100585938 433.490234375 l 257
 30.400390625 433.490234375 l 257
 30.400390625 565.490234375 l 257
 356 565.490234375 l 257
 356 440.08984375 l 257
 187.700195312 129.889648438 l 257
 356 128.790039062 l 257
 356 0.08984375 l 257
 30.400390625 0.08984375 l 257
EndSplineSet
EndChar

StartChar: uni0030
Encoding: 16 48 229
GlifName: zero
Width: 506
VWidth: 0
GlyphClass: 2
Flags: HW
LayerCount: 2
Fore
SplineSet
40 353 m 256
 40 602 134 693 223 698 c 257
 223 573 l 257
 170 560 165 461 165 398 c 256
 165 371 165 360 165 339 c 256
 165 248 167 137 222 124 c 257
 222 0 l 257
 156 3 40 60 40 353 c 256
283 573 m 257
 283 698 l 257
 372 693 466 602 466 353 c 256
 466 60 350 3 284 0 c 257
 284 124 l 257
 339 137 341 248 341 339 c 256
 341 360 341 371 341 398 c 256
 341 461 336 560 283 573 c 257
EndSplineSet
EndChar

StartChar: uni0111
Encoding: 204 273 300
Width: 414
VWidth: 0
Flags: HW
HStem: 0 118<130 210 182 210 182 258 182 384> 398 118<180 210 180 210> 542 127<194 448> 678 20<258 384 384 384>
VStem: 30 118<142 143 143 373> 258 126<0 698>
LayerCount: 2
Fore
SplineSet
30 141 m 258
 30 377 l 257
 31 422 79 516 180 516 c 258
 210 516 l 257
 210 398 l 257
 180 398 l 257
 153 397 148 375 148 373 c 258
 148 143 l 257
 148 141 154 118 182 118 c 258
 210 118 l 257
 210 0 l 257
 182 0 l 258
 78 0 30 97 30 141 c 258
194 539 m 1
 194 666 l 1
 258 666 l 1
 258 698 l 1
 384 698 l 1
 384 666 l 1
 448 666 l 1
 448 539 l 1
 384 539 l 1
 384 0 l 1
 258 0 l 1
 258 539 l 1
 194 539 l 1
EndSplineSet
Colour: ffff00
EndChar

StartChar: uni02C9
Encoding: 283 713 309
Width: 416
VWidth: 0
Flags: HW
HStem: 514 82<50 366>
VStem: 50 316<514 596>
LayerCount: 2
Fore
SplineSet
50 514 m 257
 50 596 l 257
 366 596 l 257
 366 514 l 257
 50 514 l 257
EndSplineSet
Colour: ffff00
EndChar

StartChar: uni03C0
Encoding: 290 960 312
Width: 421
VWidth: 0
Flags: HW
HStem: 0 21G<26 148 386.5 438> 389 127<-28 26 148 281 395 452>
VStem: 26 122<0 389> 281 114<117.54 389>
LayerCount: 2
Fore
SplineSet
-28 389 m 1
 -28 516 l 1
 452 516 l 1
 452 389 l 1
 395 389 l 1
 395 142 l 2
 395 138 401 111 435 108 c 2
 438 108 l 1
 438 -4 l 1
 435 -4 l 1
 338 0 281 63 281 133 c 2
 281 389 l 1
 148 389 l 1
 148 -4 l 1
 26 -4 l 1
 26 389 l 1
 -28 389 l 1
EndSplineSet
Colour: ffff00
EndChar

StartChar: uni2113
Encoding: 310 8467 314
Width: 184
VWidth: 0
Flags: HW
HStem: 680 20G<25 156>
VStem: 25 131<154.843 700>
LayerCount: 2
Fore
SplineSet
25 193 m 262
 25 700 l 261
 156 700 l 261
 156 193 l 261
 157 147 207 137 212 137 c 261
 212 -5 l 261
 152 -5 25 49 25 193 c 262
EndSplineSet
Colour: ff0000
EndChar

StartChar: uni2126
Encoding: 312 8486 315
Width: 420
VWidth: 0
Flags: HW
LayerCount: 2
Fore
SplineSet
13 -1 m 1
 13 62 l 1
 59.5935199666 62 l 1
 38.2824819827 89.988142973 28 121.046611757 28 141 c 2
 28 376 l 2x78
 28 421 79 516 186 516 c 2
 192 516 l 1
 192 398 l 1
 186 398 l 2
 153 398 148 373 148 363 c 2
 148 154 l 2
 148 135 156 117 186 117 c 2
 192 117 l 1
 192 -1 l 1xb8
 13 -1 l 1
233 -1 m 1
 233 117 l 1
 239 117 l 2xb8
 270 118 275 141 275 152 c 2
 275 363 l 2
 275 380 269 398 239 398 c 2
 233 398 l 1
 233 516 l 1
 239 516 l 2
 342 516 392 421 392 376 c 2
 392 141 l 2
 392 120.692144347 382.020720465 89.7940328615 361.510711684 62 c 1
 407 62 l 1x78
 407 -1 l 1x78
 233 -1 l 1
EndSplineSet
Colour: ff0000
EndChar

StartChar: uni212E
Encoding: 313 8494 316
Width: 472
VWidth: 0
Flags: HMW
LayerCount: 2
Fore
SplineSet
-3 141 m 258
 -3 377 l 257
 -3 440 80 516 182 516 c 258
 187 516 l 257
 187 400 l 257
 184 400 l 258
 155 400 115 401 115 369 c 258
 115 324 l 257
 302 324 l 257
 302 369 l 258
 302 396 260 402 240 402 c 258
 236 402 l 257
 236 516 l 257
 242 516 l 258
 312 516 416 450 416 378 c 258
 416 212 l 257
 115 212 l 257
 115 141 l 258
 115 124 155 109 183 108 c 258
 188 108 l 257
 188 0 l 257
 183 0 l 258
 79 0 -3 61 -3 141 c 258
236 0 m 257
 236 111 l 257
 242 111 l 258
 273 113 313 132 317 153 c 258
 318 157 l 257
 417 120 l 257
 416 118 l 256
 401 54 312 0 242 0 c 258
 236 0 l 257
EndSplineSet
Colour: ff0000
EndChar

StartChar: uni2202
Encoding: 314 8706 317
Width: 420
VWidth: 0
Flags: HW
LayerCount: 2
Fore
SplineSet
28 141 m 258
 28 376 l 258
 28 421 79 516 186 516 c 258
 192 516 l 257
 192 398 l 257
 186 398 l 258
 153 398 148 373 148 363 c 258
 148 154 l 258
 148 135 156 117 186 117 c 258
 192 117 l 257
 192 -1 l 257
 186 -1 l 258
 78 -1 28 97 28 141 c 258
70 647 m 257xf8
 70 714 l 257
 189 714 276 695 330 641 c 256
 396.030296077 574.969703923 392 512.438114646 392 442 c 258xf8
 392 376 l 257
 392 364 l 257
 392 141 l 258xf4
 392 96 343 -1 239 -1 c 258
 233 -1 l 257
 233 117 l 257xf8
 239 117 l 258
 270 118 275 141 275 152 c 258
 275 363 l 258xf4
 275 380 269 398 239 398 c 258
 233 398 l 257
 233 516 l 257
 239 516 l 258
 251 516 262 515 273 512 c 261
 273 594 182 647 70 647 c 257xf8
EndSplineSet
Colour: ff0000
EndChar

StartChar: uni2206
Encoding: 315 8710 318
Width: 414
VWidth: 0
Flags: HW
LayerCount: 2
Fore
SplineSet
-8 0 m 257
 419 0 l 257
 238 706 l 257
 174 706 l 257
 -8 0 l 257
113 97.125 m 1
 206 459 l 257
 299 97.125 l 1
 113 97.125 l 1
EndSplineSet
Colour: ff0000
EndChar

StartChar: uni220F
Encoding: 316 8719 319
Width: 458
VWidth: 0
Flags: HW
LayerCount: 2
Fore
SplineSet
2 598 m 1
 35 598 l 1
 35 -140 l 1
 131 -140 l 1
 131 598 l 1
 327 598 l 1
 327 -140 l 1
 423 -140 l 1
 423 598 l 1
 456 598 l 1
 456 694 l 1
 2 694 l 1
 2 598 l 1
EndSplineSet
Colour: ff0000
EndChar

StartChar: uni2211
Encoding: 317 8721 320
Width: 676
VWidth: 0
Flags: HW
LayerCount: 2
Fore
SplineSet
-2 -28 m 257
 -2 -140 l 257
 496 -140 l 257
 496 -28 l 257
 -2 -28 l 257
-2 593 m 257
 230 310 l 257
 -1 27 l 261
 -1 17 l 261
 144 17 l 261
 353 261 l 257
 353 358 l 257
 68 703 l 257
 -2 703 l 257
 -2 593 l 257
136 694 m 257
 219 591 l 257
 496 591 l 257
 496 703 l 257
 136 703 l 257
 136 694 l 257
EndSplineSet
Colour: ff0000
EndChar

StartChar: uni221A
Encoding: 321 8730 323
Width: 560
VWidth: 0
Flags: HW
LayerCount: 2
Fore
SplineSet
6 513 m 1
 181 575 l 1
 358.561523438 133.392578125 l 1
 488 819 l 1
 554 819 l 1
 403 -2 l 1
 316 -2 l 1
 116.557617188 494 l 1
 22 461 l 1
 6 513 l 1
EndSplineSet
Colour: ff0000
EndChar

StartChar: uni221E
Encoding: 322 8734 324
Width: 420
VWidth: 0
Flags: HW
LayerCount: 2
Fore
SplineSet
28 174 m 258
 28 409 l 258
 28 454 79 549 186 549 c 258
 192 549 l 257
 192 431 l 257
 186 431 l 258
 153 431 148 406 148 396 c 257
 148 187 l 257
 148 168 156 150 186 150 c 258
 192 150 l 257
 192 32 l 257
 186 32 l 258x6f
 78 32 28 130 28 174 c 258
233 32 m 257
 233 150 l 257
 239 150 l 258
 270 151 275 174 275 185 c 257
 275 396 l 257
 275 413 269 431 239 431 c 258
 233 431 l 257
 233 549 l 257
 239 549 l 258
 342 549 392 454 392 409 c 258
 392 174 l 258
 392 129 343 32 239 32 c 258
 233 32 l 257
436.509765625 167.087890625 m 258
 436.509765625 425 l 258x9f
 436.509765625 474.387695312 492.482421875 578.650390625 609.915039062 578.650390625 c 258
 616.5 578.650390625 l 257
 616.5 449.14453125 l 257
 609.915039062 449.14453125 l 258
 573.697265625 449.14453125 568.209960938 421.70703125 568.209960938 410.732421875 c 257
 568.209960938 181.35546875 l 257
 568.209960938 160.502929688 576.990234375 140.747070312 609.915039062 140.747070312 c 258
 616.5 140.747070312 l 257
 616.5 11.2421875 l 257
 609.915039062 11.2421875 l 258
 491.384765625 11.2421875 436.509765625 118.797851562 436.509765625 167.087890625 c 258
661.497070312 11.2421875 m 257
 661.497070312 140.747070312 l 257
 668.08203125 140.747070312 l 258
 702.10546875 141.844726562 707.592773438 167.087890625 707.592773438 179.16015625 c 257
 707.592773438 410.732421875 l 257
 707.592773438 429.389648438 701.0078125 449.14453125 668.08203125 449.14453125 c 258
 661.497070312 449.14453125 l 257
 661.497070312 578.650390625 l 257
 668.08203125 578.650390625 l 258
 781.125 578.650390625 836 474.387695312 836 425 c 258
 836 167.087890625 l 258
 836 117.700195312 782.22265625 11.2421875 668.08203125 11.2421875 c 258
 661.497070312 11.2421875 l 257
EndSplineSet
EndChar

StartChar: uni222B
Encoding: 323 8747 325
Width: 285
VWidth: 0
Flags: HW
HStem: -205 65<1 44.1228> 754 65<231.686 282>
VStem: 98 89<-84.8469 -3 625 706.466>
LayerCount: 2
Fore
SplineSet
1 -140 m 1
 1 -205 l 1
 61 -205 187 -147 187 -3 c 2
 187 625 l 2
 187 744 277 754 282 754 c 1
 282 819 l 1
 222 819 98 769 98 625 c 2
 98 -3 l 1
 98 -116 6 -140 1 -140 c 1
EndSplineSet
Colour: ff0000
EndChar

StartChar: uni2248
Encoding: 324 8776 326
Width: 568
VWidth: 0
Flags: HW
LayerCount: 2
Fore
SplineSet
50 164 m 261
 50 297 l 261
 95 323 132 332 163 332 c 260x40
 250 332 299 259 387 259 c 260
 422 259 464 271 518 304 c 261
 518 173 l 261x80
 462 139 418 127 381 127 c 260x80
 289 127 239 200 157 200 c 260
 127 200 92 191 50 164 c 261
50 402 m 257
 50 535 l 257
 95 561 132 570 163 570 c 256x10
 250 570 299 497 387 497 c 256x20
 422 497 464 509 518 542 c 257
 518 411 l 257
 462 377 418 365 381 365 c 256x20
 289 365 239 438 157 438 c 256
 127 438 92 429 50 402 c 257
EndSplineSet
Colour: ff0000
EndChar

StartChar: uni2264
Encoding: 326 8804 327
Width: 414
VWidth: 0
Flags: HW
LayerCount: 2
Fore
SplineSet
-16 -16 m 261
 434 -16 l 261
 434 -123 l 261
 -16 -123 l 261
 -16 -16 l 261
30 325 m 261
 30 389 l 261
 384 567 l 261
 384 437 l 261
 208 359 l 261
 384 273 l 261
 384 146 l 261
 30 325 l 261
EndSplineSet
Colour: ff0000
EndChar

StartChar: uni2265
Encoding: 327 8805 328
Width: 414
VWidth: 0
Flags: HW
HStem: -123 107<-16 434>
LayerCount: 2
Fore
SplineSet
-16 -16 m 257
 434 -16 l 257
 434 -123 l 257
 -16 -123 l 257
 -16 -16 l 257
30 146 m 257
 384 325 l 257
 384 389 l 257
 30 567 l 257
 30 437 l 257
 206 359 l 257
 30 273 l 257
 30 146 l 257
EndSplineSet
Colour: ff0000
EndChar

StartChar: uni25CA
Encoding: 328 9674 329
Width: 414
VWidth: 0
Flags: HW
LayerCount: 2
Fore
SplineSet
-3 352 m 261
 175 706 l 261
 239 706 l 261
 418 352 l 261
 239 -2 l 261
 175 -2 l 261
 -3 352 l 261
-3 352 m 257
 175 706 l 257
 239 706 l 257
 418 352 l 257
 239 -2 l 257
 175 -2 l 257
 -3 352 l 257
127 352 m 261
 205 176 l 261
 291 352 l 261
 205 528 l 261
 127 352 l 261
127 352 m 257
 205 176 l 257
 291 352 l 257
 205 528 l 257
 127 352 l 257
EndSplineSet
Colour: ff0000
EndChar
